<svg xmlns="http://www.w3.org/2000/svg" width="56" height="54" viewBox="0 0 56 54">
  <g id="Group_6345" data-name="Group 6345" transform="translate(0.434)">
    <rect id="Rectangle_953" data-name="Rectangle 953" width="56" height="54" rx="27" transform="translate(-0.434)"/>
    <path id="Icon_metro-apple" data-name="Icon metro-apple" d="M21.921,14.808a5.484,5.484,0,0,1,2.617-4.615,5.661,5.661,0,0,0-4.432-2.4C18.217,7.6,16.422,8.9,15.464,8.9s-2.434-1.083-4-1.055A5.931,5.931,0,0,0,6.45,10.886C4.313,14.6,5.9,20.091,7.986,23.1c1.018,1.472,2.232,3.126,3.826,3.067,1.535-.061,2.115-.993,3.971-.993s2.377.993,4,.963c1.652-.031,2.7-1.5,3.709-2.978a13.361,13.361,0,0,0,1.679-3.447,5.354,5.354,0,0,1-3.253-4.9ZM18.868,5.8A5.342,5.342,0,0,0,20.13,1.928a5.434,5.434,0,0,0-3.57,1.836,5.082,5.082,0,0,0-1.287,3.75A4.5,4.5,0,0,0,18.868,5.8Z" transform="translate(12.299 11.611)" fill="#fff"/>
  </g>
</svg>
