<svg xmlns="http://www.w3.org/2000/svg" width="36.949" height="31.474" viewBox="0 0 36.949 31.474">
  <path id="Union_86" data-name="Union 86" d="M0,31.474V27.012H28.526v4.462Zm11.994-7.438V13.558H16.5V24.036Zm-9.012,0V13.558H7.524V24.036ZM20.97,24V17.146a5.107,5.107,0,0,0,1.759-.445,8.249,8.249,0,0,0,1.586-.994l1.23.424V24Zm-2-7.78a.282.282,0,0,1,.055-.3,9.006,9.006,0,0,0,1.928-3.366,6.5,6.5,0,0,1-2.005-4.6c0-4.038,4.031-7.312,9-7.312s9,3.273,9,7.312-4.029,7.312-9,7.312a10.746,10.746,0,0,1-3.777-.68,8.039,8.039,0,0,1-4.941,1.806A.283.283,0,0,1,18.973,16.22ZM26.551,9.6l-.617.617a.421.421,0,0,0,.055.646,2.6,2.6,0,0,0,1.117.4v.623a.562.562,0,0,0,.563.562h.563a.562.562,0,0,0,.562-.562v-.617a1.978,1.978,0,0,0,1.734-2.217A2.059,2.059,0,0,0,29.021,7.38l-1.761-.5a.295.295,0,0,1,.081-.579h1.153a.843.843,0,0,1,.359.078.432.432,0,0,0,.5-.072l.615-.615a.421.421,0,0,0-.053-.646,2.564,2.564,0,0,0-1.119-.4V4.014a.562.562,0,0,0-.562-.562h-.562a.562.562,0,0,0-.562.562v.617a1.98,1.98,0,0,0-1.734,2.217,2.06,2.06,0,0,0,1.509,1.675l1.761.5a.3.3,0,0,1-.082.581H27.407a.859.859,0,0,1-.36-.08.488.488,0,0,0-.205-.045A.407.407,0,0,0,26.551,9.6ZM0,10.508V7.439L14.207,0l5.672,2.931a5.178,5.178,0,0,0-2.185,3.579,5.905,5.905,0,0,0,.418,4Z" fill="#434343"/>
</svg>
