<svg xmlns="http://www.w3.org/2000/svg" width="25.084" height="28.668" viewBox="0 0 25.084 28.668">
  <path id="Icon_awesome-book" data-name="Icon awesome-book" d="M25.084,20.157V1.344A1.341,1.341,0,0,0,23.741,0H5.375A5.377,5.377,0,0,0,0,5.375V23.293a5.377,5.377,0,0,0,5.375,5.375H23.741a1.341,1.341,0,0,0,1.344-1.344v-.9a1.354,1.354,0,0,0-.5-1.047,12.487,12.487,0,0,1,0-4.183A1.334,1.334,0,0,0,25.084,20.157ZM7.167,7.5A.337.337,0,0,1,7.5,7.167h11.87a.337.337,0,0,1,.336.336v1.12a.337.337,0,0,1-.336.336H7.5a.337.337,0,0,1-.336-.336Zm0,3.583A.337.337,0,0,1,7.5,10.75h11.87a.337.337,0,0,1,.336.336v1.12a.337.337,0,0,1-.336.336H7.5a.337.337,0,0,1-.336-.336Zm14.188,14H5.375a1.792,1.792,0,0,1,0-3.583h15.98A20.158,20.158,0,0,0,21.355,25.084Z" fill="#fff"/>
</svg>
