<svg xmlns="http://www.w3.org/2000/svg" width="28.263" height="21.982" viewBox="0 0 28.263 21.982">
  <path id="Icon_awesome-credit-card" data-name="Icon awesome-credit-card" d="M0,21.877a2.356,2.356,0,0,0,2.355,2.355H25.908a2.356,2.356,0,0,0,2.355-2.355V13.241H0ZM9.421,18.54a.591.591,0,0,1,.589-.589h6.673a.591.591,0,0,1,.589.589V20.5a.591.591,0,0,1-.589.589H10.01a.591.591,0,0,1-.589-.589Zm-6.281,0a.591.591,0,0,1,.589-.589H7.262a.591.591,0,0,1,.589.589V20.5a.591.591,0,0,1-.589.589H3.729A.591.591,0,0,1,3.14,20.5ZM28.263,4.605V6.96H0V4.605A2.356,2.356,0,0,1,2.355,2.25H25.908A2.356,2.356,0,0,1,28.263,4.605Z" transform="translate(0 -2.25)" fill="#133b6f"/>
</svg>
