<svg xmlns="http://www.w3.org/2000/svg" width="33.597" height="32.271" viewBox="0 0 33.597 32.271">
  <path id="Union_112" data-name="Union 112" d="M-3400.755-11781.867a8.122,8.122,0,0,1-2.6-1.758,8.151,8.151,0,0,1-1.752-2.605,8.173,8.173,0,0,1-.641-3.187,8.176,8.176,0,0,1,.641-3.189,8.172,8.172,0,0,1,1.752-2.605,8.148,8.148,0,0,1,2.6-1.756,8.088,8.088,0,0,1,3.181-.645,8.093,8.093,0,0,1,3.18.645,8.143,8.143,0,0,1,2.6,1.756,8.14,8.14,0,0,1,1.751,2.605,8.154,8.154,0,0,1,.643,3.189,8.141,8.141,0,0,1-.582,3.037,8.436,8.436,0,0,1-1.626,2.564,8.1,8.1,0,0,1-5.963,2.592A8.086,8.086,0,0,1-3400.755-11781.867Zm3.181-6.229h3.163a1.191,1.191,0,0,0,1.186-1.191,1.189,1.189,0,0,0-1.186-1.189h-2.109v-3.832a1.189,1.189,0,0,0-1.186-1.189,1.189,1.189,0,0,0-1.187,1.189v5.021a1.191,1.191,0,0,0,1.187,1.191c.022,0,.043,0,.066,0S-3397.6-11788.1-3397.574-11788.1Zm-18.926,4.229a8.957,8.957,0,0,1-5.2-3.646,8.565,8.565,0,0,1-1.2-5.928,17.68,17.68,0,0,1,2.124-6.377,29.936,29.936,0,0,1,5.544-6.809,12.443,12.443,0,0,1,1.278-1.076,9.7,9.7,0,0,1-1.515-2.475,2.959,2.959,0,0,1-.141-2.676,1.242,1.242,0,0,1,1.088-.531,2.144,2.144,0,0,1,.551.074,7.868,7.868,0,0,1,1.143.432,6.186,6.186,0,0,0,2.617.678,5.992,5.992,0,0,0,1.877-.322c.281-.09.57-.189.867-.291l.007,0a9.829,9.829,0,0,1,2.661-.68.867.867,0,0,1,.8.338c.312.486.088,1.523-.683,3.174a14.957,14.957,0,0,1-1.105,1.98,24.164,24.164,0,0,1,6.737,6.758c.217.3.426.6.624.893a11,11,0,0,0-10.081,10.936,10.914,10.914,0,0,0,2.1,6.463c-.707.047-1.44.072-2.181.072A30.275,30.275,0,0,1-3416.5-11783.867Zm-.709-9.277a2.433,2.433,0,0,0,.837.629,6.273,6.273,0,0,0,1.336.48,6.521,6.521,0,0,0,.685.131v1.217h1.962v-1.279a4.118,4.118,0,0,0,.8-.26,2.756,2.756,0,0,0,1.261-1.084,3.248,3.248,0,0,0,.434-1.709v-.016a3.022,3.022,0,0,0-.409-1.678,2.414,2.414,0,0,0-1.014-.889,7.55,7.55,0,0,0-1.515-.48l-.035-.006-.036-.008-.073-.014-.013,0-.014,0a7.981,7.981,0,0,1-.95-.252,1.376,1.376,0,0,1-.581-.387,1.086,1.086,0,0,1-.232-.734v-.008a.972.972,0,0,1,.423-.836,2.041,2.041,0,0,1,1.182-.3,3,3,0,0,1,1.113.229,4.357,4.357,0,0,1,1.115.648l.832-1.664a5.586,5.586,0,0,0-.971-.59,5.2,5.2,0,0,0-1.047-.375c-.09-.023-.18-.041-.269-.057v-1.236h-1.962v1.289a3.571,3.571,0,0,0-.731.252,2.732,2.732,0,0,0-1.215,1.1,3.4,3.4,0,0,0-.417,1.732v.006a3.015,3.015,0,0,0,.447,1.771,2.349,2.349,0,0,0,1.074.857,9.751,9.751,0,0,0,1.636.426l.047,0a.2.2,0,0,1,.047.012.094.094,0,0,0,.033.008.078.078,0,0,1,.033.006,5.835,5.835,0,0,1,.823.209,1.2,1.2,0,0,1,.525.359,1,1,0,0,1,.206.66v.008a1.077,1.077,0,0,1-.456.924,2.173,2.173,0,0,1-1.279.326,4.108,4.108,0,0,1-1.465-.268,4.1,4.1,0,0,1-1.259-.768Z" transform="translate(3423 11813.496)" fill="#9b9b9b"/>
</svg>
