<svg xmlns="http://www.w3.org/2000/svg" width="29.586" height="27.933" viewBox="0 0 29.586 27.933">
  <path id="Subtraction_39" data-name="Subtraction 39" d="M-3404.059-11789.1a2.335,2.335,0,0,1-1.117-.286l-1.484-.81a2.629,2.629,0,0,0-1.253-.317,2.623,2.623,0,0,0-1.252.317l-1.485.81a2.335,2.335,0,0,1-1.117.286,2.349,2.349,0,0,1-1.227-.346,2.285,2.285,0,0,1-.874-.973l-.715-1.507a2.572,2.572,0,0,0-2.03-1.453l-1.678-.2a2.3,2.3,0,0,1-1.592-.924,2.237,2.237,0,0,1-.4-1.779l.32-1.624a2.517,2.517,0,0,0-.776-2.356l-1.229-1.128a2.25,2.25,0,0,1-.738-1.673,2.248,2.248,0,0,1,.738-1.672l1.229-1.128a2.517,2.517,0,0,0,.776-2.356l-.32-1.624a2.241,2.241,0,0,1,.4-1.779,2.3,2.3,0,0,1,1.592-.924l1.678-.2a2.571,2.571,0,0,0,2.03-1.453l.715-1.508a2.29,2.29,0,0,1,.874-.972,2.34,2.34,0,0,1,1.227-.346,2.335,2.335,0,0,1,1.117.286l1.485.81a2.623,2.623,0,0,0,1.252.318,2.628,2.628,0,0,0,1.253-.318l1.484-.81a2.335,2.335,0,0,1,1.117-.286,2.346,2.346,0,0,1,1.228.346,2.293,2.293,0,0,1,.873.972l.715,1.508a2.568,2.568,0,0,0,2.029,1.453l1.678.2a2.3,2.3,0,0,1,1.592.925,2.235,2.235,0,0,1,.4,1.778l-.32,1.624a2.638,2.638,0,0,0,.02,1.063,2.492,2.492,0,0,0,.758,1.293l1.229,1.128a2.249,2.249,0,0,1,.738,1.672,2.249,2.249,0,0,1-.738,1.673l-1.229,1.128a2.521,2.521,0,0,0-.777,2.356l.32,1.624a2.236,2.236,0,0,1-.4,1.779,2.3,2.3,0,0,1-1.592.924l-1.678.2a2.569,2.569,0,0,0-2.029,1.453l-.715,1.507a2.287,2.287,0,0,1-.873.973A2.355,2.355,0,0,1-3404.059-11789.1Zm-.082-20.139-8.569,11.632,1.1.715,8.568-11.647-1.1-.7Zm.708,5.365a3.96,3.96,0,0,0-1.817.413,3.187,3.187,0,0,0-1.285,1.194,3.54,3.54,0,0,0-.475,1.865,3.628,3.628,0,0,0,.475,1.893,3.148,3.148,0,0,0,1.285,1.2,3.957,3.957,0,0,0,1.817.413,3.91,3.91,0,0,0,1.8-.413,3.144,3.144,0,0,0,1.285-1.2,3.626,3.626,0,0,0,.475-1.893,3.535,3.535,0,0,0-.475-1.865,3.18,3.18,0,0,0-1.285-1.194A3.912,3.912,0,0,0-3403.433-11803.876Zm-8.885-5.365a3.969,3.969,0,0,0-1.816.412,3.185,3.185,0,0,0-1.286,1.2,3.534,3.534,0,0,0-.475,1.864,3.622,3.622,0,0,0,.475,1.894,3.154,3.154,0,0,0,1.286,1.2,3.937,3.937,0,0,0,1.816.414,3.9,3.9,0,0,0,1.8-.414,3.146,3.146,0,0,0,1.285-1.2,3.622,3.622,0,0,0,.475-1.894,3.534,3.534,0,0,0-.475-1.864,3.185,3.185,0,0,0-1.285-1.2A3.931,3.931,0,0,0-3412.318-11809.241Zm8.885,11.079a1.885,1.885,0,0,1-1.072-.294,1.908,1.908,0,0,1-.671-.808,2.8,2.8,0,0,1-.233-1.158,2.614,2.614,0,0,1,.233-1.12,1.856,1.856,0,0,1,.671-.781,1.932,1.932,0,0,1,1.072-.285,1.943,1.943,0,0,1,1.062.285,1.77,1.77,0,0,1,.671.79,2.83,2.83,0,0,1,.223,1.148,2.673,2.673,0,0,1-.233,1.129,1.9,1.9,0,0,1-.671.8A1.849,1.849,0,0,1-3403.433-11798.162Zm-8.885-5.365a1.891,1.891,0,0,1-1.071-.293,1.893,1.893,0,0,1-.671-.809,2.8,2.8,0,0,1-.233-1.158,2.609,2.609,0,0,1,.233-1.119,1.849,1.849,0,0,1,.671-.782,1.93,1.93,0,0,1,1.071-.285,1.943,1.943,0,0,1,1.062.285,1.756,1.756,0,0,1,.671.79,2.835,2.835,0,0,1,.224,1.148,2.674,2.674,0,0,1-.233,1.13,1.911,1.911,0,0,1-.67.8A1.862,1.862,0,0,1-3412.318-11803.527Z" transform="translate(3422.706 11817.035)" fill="#9b9b9b"/>
</svg>
