<svg xmlns="http://www.w3.org/2000/svg" width="28.561" height="28.561" viewBox="0 0 28.561 28.561">
  <path id="Union_113" data-name="Union 113" d="M-3414.277-11790.562a14.2,14.2,0,0,1-4.54-3.06,14.212,14.212,0,0,1-3.06-4.539,14.185,14.185,0,0,1-1.123-5.559,14.177,14.177,0,0,1,1.123-5.558,14.226,14.226,0,0,1,3.06-4.54,14.182,14.182,0,0,1,4.54-3.06,14.164,14.164,0,0,1,5.559-1.123,14.176,14.176,0,0,1,5.559,1.123,14.191,14.191,0,0,1,4.538,3.06,14.206,14.206,0,0,1,3.06,4.54,14.177,14.177,0,0,1,1.123,5.558,14.185,14.185,0,0,1-1.123,5.559,14.188,14.188,0,0,1-3.06,4.539,14.207,14.207,0,0,1-4.538,3.06,14.193,14.193,0,0,1-5.559,1.123A14.181,14.181,0,0,1-3414.277-11790.562Zm-5.549-13.157a11.12,11.12,0,0,0,11.108,11.107,11.118,11.118,0,0,0,11.107-11.107,11.119,11.119,0,0,0-11.107-11.107A11.12,11.12,0,0,0-3419.827-11803.72Zm4.537,6.572a9.233,9.233,0,0,1-2.723-6.573,9.231,9.231,0,0,1,2.723-6.571,9.237,9.237,0,0,1,6.571-2.722,9.241,9.241,0,0,1,6.573,2.722,9.239,9.239,0,0,1,2.721,6.571,9.3,9.3,0,0,1-1.922,5.661,9.2,9.2,0,0,1-7.373,3.633A9.236,9.236,0,0,1-3415.29-11797.147Zm3.223-2.884a2.218,2.218,0,0,0,.767.572,5.705,5.705,0,0,0,1.224.44,5.853,5.853,0,0,0,.626.118v1.111h1.8v-1.168a3.685,3.685,0,0,0,.732-.234,2.551,2.551,0,0,0,1.155-.993,2.951,2.951,0,0,0,.4-1.561v-.014a2.745,2.745,0,0,0-.374-1.531,2.24,2.24,0,0,0-.928-.814,7.159,7.159,0,0,0-1.387-.435c-.011,0-.021,0-.032-.008a.2.2,0,0,1-.033-.007h-.01l-.057-.011h0a.017.017,0,0,1-.012,0,.02.02,0,0,0-.012,0,7.485,7.485,0,0,1-.87-.229,1.231,1.231,0,0,1-.531-.355.977.977,0,0,1-.214-.669v-.007a.884.884,0,0,1,.387-.764,1.882,1.882,0,0,1,1.083-.271,2.807,2.807,0,0,1,1.021.207,4.076,4.076,0,0,1,1.021.593l.76-1.521a5.209,5.209,0,0,0-.887-.539,4.919,4.919,0,0,0-.959-.342c-.082-.02-.163-.038-.246-.053v-1.128h-1.8v1.179a3.276,3.276,0,0,0-.668.229,2.486,2.486,0,0,0-1.114,1,3.094,3.094,0,0,0-.383,1.58v.008a2.746,2.746,0,0,0,.41,1.616,2.16,2.16,0,0,0,.984.785,9.226,9.226,0,0,0,1.5.387h0a.217.217,0,0,1,.043,0,.143.143,0,0,1,.043.01.07.07,0,0,0,.03.006.046.046,0,0,1,.029.007,5,5,0,0,1,.753.189,1.111,1.111,0,0,1,.483.327.919.919,0,0,1,.187.6v.006a.983.983,0,0,1-.417.845,2,2,0,0,1-1.17.3,3.731,3.731,0,0,1-1.342-.246,3.7,3.7,0,0,1-1.152-.7Z" transform="translate(3423 11818)" fill="#133b6f"/>
</svg>
