<svg xmlns="http://www.w3.org/2000/svg" width="32.528" height="28.879" viewBox="0 0 32.528 28.879">
  <path id="Subtraction_35" data-name="Subtraction 35" d="M-3406.286-11789.122a2.306,2.306,0,0,1-1.637-.659l-.272-.268a2.678,2.678,0,0,0,.823-.557l6.609-6.54,6.2-6.134a2.55,2.55,0,0,0,.948-1.948l.141-5.586.1-3.94a2.508,2.508,0,0,0-.06-.624l.508-.03h.016l.043,0,.1,0a2.29,2.29,0,0,1,1.684.706,2.274,2.274,0,0,1,.611,1.723l-.228,3.694-.326,5.234a2.607,2.607,0,0,1-.956,1.854l-6.015,5.951-6.412,6.344A2.689,2.689,0,0,1-3406.286-11789.122Zm-4.793-1.489a2.531,2.531,0,0,1-1.8-.735l-9.379-9.277a2.492,2.492,0,0,1-.744-1.779,2.493,2.493,0,0,1,.744-1.778l12.809-12.671.005-.009a2.5,2.5,0,0,1,1.89-.9l9.632-.241h.064a2.537,2.537,0,0,1,1.8.737,2.47,2.47,0,0,1,.744,1.843l-.1,3.941-.141,5.586a2.458,2.458,0,0,1-.907,1.867l-.005.006-6.2,6.137-6.609,6.537A2.541,2.541,0,0,1-3411.079-11790.611Zm-2.571-9.509h0l-.982,1.729a2.589,2.589,0,0,0,.9.67,6.888,6.888,0,0,0,1.442.513,7.353,7.353,0,0,0,.739.137v1.3h2.121v-1.364a4.219,4.219,0,0,0,.863-.274,2.974,2.974,0,0,0,1.36-1.155,3.414,3.414,0,0,0,.47-1.822v-.016a3.184,3.184,0,0,0-.442-1.787,2.6,2.6,0,0,0-1.094-.948,8.63,8.63,0,0,0-1.638-.511.585.585,0,0,1-.076-.013l-.076-.017h0a.028.028,0,0,1-.015,0,.038.038,0,0,0-.016-.006,8.259,8.259,0,0,1-1.024-.268,1.458,1.458,0,0,1-.627-.411,1.138,1.138,0,0,1-.252-.782v-.008a1.026,1.026,0,0,1,.456-.892,2.217,2.217,0,0,1,1.276-.318,3.3,3.3,0,0,1,1.2.243,4.73,4.73,0,0,1,1.2.692l.9-1.775a6.237,6.237,0,0,0-1.048-.629,5.777,5.777,0,0,0-1.13-.4c-.087-.022-.177-.04-.268-.058l-.022,0v-1.316h-2.121v1.372a4.1,4.1,0,0,0-.787.269,2.923,2.923,0,0,0-1.312,1.169,3.576,3.576,0,0,0-.453,1.844v.008a3.18,3.18,0,0,0,.483,1.886,2.553,2.553,0,0,0,1.162.917,10.662,10.662,0,0,0,1.768.451h0a.369.369,0,0,1,.045,0,.311.311,0,0,1,.052.014.09.09,0,0,0,.035.008.145.145,0,0,1,.033,0,6.088,6.088,0,0,1,.891.224,1.327,1.327,0,0,1,.568.382,1.043,1.043,0,0,1,.223.706v.009a1.138,1.138,0,0,1-.492.98,2.373,2.373,0,0,1-1.382.35,4.454,4.454,0,0,1-1.581-.288,4.313,4.313,0,0,1-1.357-.813Zm11.161-13.265a2.65,2.65,0,0,0-1.876.766,2.608,2.608,0,0,0,0,3.711,2.649,2.649,0,0,0,1.876.768,2.648,2.648,0,0,0,1.876-.768,2.6,2.6,0,0,0,.776-1.855,2.6,2.6,0,0,0-.776-1.855A2.657,2.657,0,0,0-3402.489-11813.385Z" transform="translate(3423 11818.001)" fill="#133b6f"/>
</svg>
