<svg xmlns="http://www.w3.org/2000/svg" width="40.045" height="40.045" viewBox="0 0 40.045 40.045">
  <g id="Group_7141" data-name="Group 7141" transform="translate(-354.744 -1277.035) rotate(45)">
    <circle id="Ellipse_269" data-name="Ellipse 269" cx="14.158" cy="14.158" r="14.158" transform="translate(1168 638)" fill="#e15d5d"/>
    <path id="Union_88" data-name="Union 88" d="M7.742,17.529a1,1,0,0,1-1-1V10.787H1a1,1,0,0,1-1-1V7.743a1,1,0,0,1,1-1H6.742V1a1,1,0,0,1,1-1H9.787a1,1,0,0,1,1,1V6.743h5.741a1,1,0,0,1,1,1V9.788a1,1,0,0,1-1,1H10.787v5.742a1,1,0,0,1-1,1Z" transform="translate(1173.394 643.393)" fill="#fff"/>
  </g>
</svg>
