<svg xmlns="http://www.w3.org/2000/svg" width="30" height="30" viewBox="0 0 30 30">
  <path id="Subtraction_13" data-name="Subtraction 13" d="M-5466-4338a14.9,14.9,0,0,1-10.606-4.395A14.9,14.9,0,0,1-5481-4353a14.894,14.894,0,0,1,4.394-10.6A14.9,14.9,0,0,1-5466-4368a14.9,14.9,0,0,1,10.606,4.395A14.894,14.894,0,0,1-5451-4353a14.9,14.9,0,0,1-4.394,10.606A14.9,14.9,0,0,1-5466-4338Zm-6.293-16.08-2.46,2.459,6.122,6.122.791-.789,1.668-1.67,1.2-1.2,7.724-7.726-2.533-2.532-8.922,8.923Z" transform="translate(5481 4368)" fill="#fff"/>
</svg>
