<svg xmlns="http://www.w3.org/2000/svg" width="33.097" height="25.742" viewBox="0 0 33.097 25.742">
  <path id="Icon_awesome-credit-card" data-name="Icon awesome-credit-card" d="M0,25.234a2.759,2.759,0,0,0,2.758,2.758H30.339A2.759,2.759,0,0,0,33.1,25.234V15.121H0Zm11.032-3.907a.692.692,0,0,1,.69-.69h7.815a.692.692,0,0,1,.69.69v2.3a.692.692,0,0,1-.69.69H11.722a.692.692,0,0,1-.69-.69Zm-7.355,0a.692.692,0,0,1,.69-.69H8.5a.692.692,0,0,1,.69.69v2.3a.692.692,0,0,1-.69.69H4.367a.692.692,0,0,1-.69-.69ZM33.1,5.008V7.766H0V5.008A2.759,2.759,0,0,1,2.758,2.25H30.339A2.759,2.759,0,0,1,33.1,5.008Z" transform="translate(0 -2.25)" fill="#434343"/>
</svg>
