<svg xmlns="http://www.w3.org/2000/svg" width="24.157" height="30.532" viewBox="0 0 24.157 30.532">
  <path id="Union_83" data-name="Union 83" d="M-5473.3-4338.374l.681-3.909,8.447-8.447a.39.39,0,0,1,.55,0l3.571,3.571a.387.387,0,0,1,0,.547l-8.447,8.447-3.908.685a.733.733,0,0,1-.133.011A.773.773,0,0,1-5473.3-4338.374Zm1.286-1.4,1,1,2.076-.363v-1.168h-1.544v-1.544h-1.168Zm7.647-8.827-4.955,4.954a.45.45,0,0,0,0,.637.448.448,0,0,0,.637,0l4.955-4.954a.448.448,0,0,0,0-.637.448.448,0,0,0-.319-.133A.442.442,0,0,0-5464.367-4348.6Zm-1.057,8.721,5.8-6.1v3.853a2.256,2.256,0,0,1-2.249,2.249Zm-13.326,0a2.256,2.256,0,0,1-2.25-2.249v-23.625a2.256,2.256,0,0,1,2.25-2.25h9.21v5.625a3.169,3.169,0,0,0,3.164,3.165h6.75v4s-.359-.354-1.2,0l-12.6,12.526-.48,2.808Zm19.423-8.011-3.57-3.57a.387.387,0,0,1,0-.547l1.483-1.483a1.547,1.547,0,0,1,2.183,0l1.934,1.934a1.54,1.54,0,0,1,0,2.183l-1.483,1.483a.387.387,0,0,1-.274.114A.386.386,0,0,1-5459.327-4347.887Zm-7.048-13.153a1.335,1.335,0,0,1-1.336-1.335v-5.1a.519.519,0,0,1,.52-.52,2.26,2.26,0,0,1,1.449.52l5.364,4.473a2.074,2.074,0,0,1,.752,1.609.347.347,0,0,1-.352.351Z" transform="translate(5481 4368)" fill="#fff"/>
</svg>
