<svg xmlns="http://www.w3.org/2000/svg" xmlns:xlink="http://www.w3.org/1999/xlink" width="197.054" height="206.256" viewBox="0 0 197.054 206.256">
  <defs>
    <linearGradient id="linear-gradient" x1="-0.387" y1="0.169" x2="1.005" y2="0.755" gradientUnits="objectBoundingBox">
      <stop offset="0" stop-color="#fff"/>
      <stop offset="1" stop-color="#d9d9d9"/>
    </linearGradient>
    <linearGradient id="linear-gradient-2" x1="0.456" y1="0.255" x2="0.566" y2="0.692" gradientUnits="objectBoundingBox">
      <stop offset="0" stop-color="#fabc88"/>
      <stop offset="1" stop-color="#ffe3cb"/>
    </linearGradient>
    <linearGradient id="linear-gradient-3" x1="0.5" x2="0.5" y2="1" gradientUnits="objectBoundingBox">
      <stop offset="0" stop-color="#d38f44"/>
      <stop offset="1" stop-color="#6a4822"/>
    </linearGradient>
    <filter id="Union_77" x="33.376" y="0" width="163.677" height="170.183" filterUnits="userSpaceOnUse">
      <feOffset dy="3" input="SourceAlpha"/>
      <feGaussianBlur stdDeviation="3" result="blur"/>
      <feFlood flood-opacity="0.161"/>
      <feComposite operator="in" in2="blur"/>
      <feComposite in="SourceGraphic"/>
    </filter>
    <linearGradient id="linear-gradient-4" x1="0.313" y1="0.006" x2="0.527" y2="1.05" gradientUnits="objectBoundingBox">
      <stop offset="0" stop-color="#fff"/>
      <stop offset="1" stop-color="#e0e0e0"/>
    </linearGradient>
    <filter id="Rectangle_972" x="48.682" y="12.931" width="135.132" height="134.845" filterUnits="userSpaceOnUse">
      <feOffset input="SourceAlpha"/>
      <feGaussianBlur stdDeviation="3" result="blur-2"/>
      <feFlood flood-opacity="0.161"/>
      <feComposite operator="in" in2="blur-2"/>
      <feComposite in="SourceGraphic"/>
    </filter>
    <linearGradient id="linear-gradient-5" x1="0.5" x2="0.5" y2="1" gradientUnits="objectBoundingBox">
      <stop offset="0" stop-color="#b7813f"/>
      <stop offset="1" stop-color="#daa86c"/>
    </linearGradient>
    <linearGradient id="linear-gradient-6" x1="0.5" x2="0.5" y2="1" gradientUnits="objectBoundingBox">
      <stop offset="0" stop-color="#daa86c"/>
      <stop offset="1" stop-color="#ba8442"/>
    </linearGradient>
    <linearGradient id="linear-gradient-7" x1="0.486" y1="0.052" x2="0.812" y2="1.655" gradientUnits="objectBoundingBox">
      <stop offset="0" stop-color="#d38f44"/>
      <stop offset="1" stop-color="#a06728"/>
    </linearGradient>
  </defs>
  <g id="Group_6711" data-name="Group 6711" transform="translate(0 6.047)">
    <rect id="Rectangle_975" data-name="Rectangle 975" width="136.182" height="136.182" rx="32" transform="translate(92.876 7.736) rotate(43)" fill="url(#linear-gradient)"/>
    <g id="Group_6383" data-name="Group 6383" transform="translate(42.302 -0.054)">
      <path id="Path_280" data-name="Path 280" d="M4905.13-679.615l-2.66-12.427-46.691-.387s-.633,27.909,3.013,35.037a24.6,24.6,0,0,0,10.533,10.267l-.328,25.1,35.372-38.3Z" transform="translate(-4797.31 807.274)" fill="url(#linear-gradient-2)"/>
      <g id="Group_6388" data-name="Group 6388" transform="matrix(0.883, 0.469, -0.469, 0.883, 55.453, 0)">
        <g id="Group_6386" data-name="Group 6386" transform="translate(0 0)">
          <g transform="matrix(0.88, -0.47, 0.47, 0.88, -89.13, 40.6)" filter="url(#Union_77)">
            <path id="Union_77-2" data-name="Union 77" d="M4.047,117.988a4.028,4.028,0,0,1-4.032-4.032V48.481a4.012,4.012,0,0,1,.858-2.486H.627l.408-.625L51.381,0l50.235,45.408.208.77h-.278a4.008,4.008,0,0,1,.723,2.3v65.475a4.028,4.028,0,0,1-4.032,4.032Z" transform="matrix(0.88, 0.47, -0.47, 0.88, 97.75, 5.99)" fill="url(#linear-gradient-3)"/>
          </g>
          <g id="Group_6385" data-name="Group 6385" transform="translate(0.17 13.896)">
            <g transform="matrix(0.88, -0.47, 0.47, 0.88, -89.3, 26.71)" filter="url(#Rectangle_972)">
              <rect id="Rectangle_972-2" data-name="Rectangle 972" width="86.851" height="86.156" rx="2" transform="matrix(0.88, 0.47, -0.47, 0.88, 98.13, 21.93)" fill="url(#linear-gradient-4)"/>
            </g>
            <g id="Group_6384" data-name="Group 6384" transform="translate(0 32.201)">
              <path id="Path_290" data-name="Path 290" d="M37.685,0,71.729,43.3A2.926,2.926,0,0,1,69.2,44.647c-1.8,0-66.757.011-67.831,0S0,44.316,0,44.316Z" transform="translate(44.653 0) rotate(90)" fill="url(#linear-gradient-5)"/>
              <path id="Path_292" data-name="Path 292" d="M37.732,44.67,71.507,1.406A3.308,3.308,0,0,0,69.242.022C67.9-.018,2.656,0,1.412.025S0,.23,0,.23Z" transform="translate(102.28 0.243) rotate(90)" fill="url(#linear-gradient-6)"/>
              <path id="Path_293" data-name="Path 293" d="M50.608,0l50.619,41.034s-.611,1.21-1.615,1.221-96.254-.017-97.633.012A2.246,2.246,0,0,1,0,41.076Z" transform="translate(0.505 29.752)" fill="url(#linear-gradient-7)"/>
            </g>
          </g>
        </g>
        <g id="Group_6387" data-name="Group 6387" transform="translate(29.352 23.624)">
          <g id="Ellipse_89" data-name="Ellipse 89" transform="translate(0 0)" fill="none" stroke="#56a314" stroke-width="5">
            <circle cx="21.886" cy="21.886" r="21.886" stroke="none"/>
            <circle cx="21.886" cy="21.886" r="19.386" fill="none"/>
          </g>
          <path id="Union_78" data-name="Union 78" d="M6.048,12.761H6.024a1,1,0,0,1-.7-.3h0L.294,7.6A1,1,0,0,1,.27,6.181l1.023-1.06A1,1,0,0,1,2.707,5.1l3.34,3.226L14.386.27A1,1,0,0,1,15.8.294l1.024,1.06A1,1,0,0,1,16.8,2.768L6.768,12.455h0a1,1,0,0,1-.7.3H6.048Z" transform="translate(13.411 15.511)" fill="#56a314"/>
        </g>
      </g>
      <path id="Path_294" data-name="Path 294" d="M4883.007-657.845s-5.556-9.245.932-17.264S4894.7-682.4,4894.7-682.4a44.783,44.783,0,0,0-7.12-13.539c-5.32-7.028-11.891-11.972-4.577-17.062s18.5,10.064,23.4,17.062,8.007,11.985,8.045,17.781-1.661,6.989-2.576,11.3l-28.682,30.83Z" transform="translate(-4804.641 813.865)" fill="#ffe3cb"/>
    </g>
  </g>
</svg>
