<svg id="Group_6342" data-name="Group 6342" xmlns="http://www.w3.org/2000/svg" width="21" height="17.014" viewBox="0 0 21 17.014">
  <g id="Rectangle_948" data-name="Rectangle 948" transform="translate(0 0.014)" fill="#fff" stroke="#707070" stroke-width="2">
    <rect width="21" height="17" rx="5" stroke="none"/>
    <rect x="1" y="1" width="19" height="15" rx="4" fill="none"/>
  </g>
  <g id="Path_270" data-name="Path 270" transform="translate(20.97 12.124) rotate(180)" fill="#fff">
    <path d="M 7.68873119354248 11.12358093261719 C 5.361851215362549 11.12358093261719 4.81619119644165 11.11037063598633 4.698040962219238 11.10249042510986 C 3.542727470397949 11.02546691894531 2.729494333267212 10.4773416519165 2.248754262924194 10.02796936035156 C 1.540279626846313 9.32996654510498 1.293573021888733 8.645046234130859 1.291401147842407 8.638421058654785 L 1.286521196365356 8.623580932617188 L 1.281181216239929 8.608901023864746 C 1.043213129043579 7.954433917999268 0.996550440788269 7.681244850158691 0.9981272220611572 7.567340850830078 L 9.606151580810547 1.430450797080994 L 9.68264102935791 1.375910878181458 L 9.747631072998047 1.308090806007385 C 9.938031196594238 1.109410881996155 10.19443130493164 1.000000834465027 10.4696216583252 1.000000834465027 C 10.74480152130127 1.000000834465027 11.00120162963867 1.109410881996155 11.19160079956055 1.308090806007385 L 11.24076080322266 1.35939085483551 L 11.29669094085693 1.403230786323547 L 19.84305191040039 8.102116584777832 C 19.75961303710938 8.612142562866211 19.3790454864502 9.430495262145996 18.48155212402344 10.23360538482666 C 17.8620491027832 10.76642227172852 16.70123100280762 11.08476161956787 16.40375328063965 11.10026550292969 C 16.37728118896484 11.10014247894287 16.33944320678711 11.1000804901123 16.29247093200684 11.1000804901123 C 15.97060108184814 11.1000804901123 15.19425106048584 11.10300064086914 14.21136093139648 11.10671043395996 C 12.32224082946777 11.11383056640625 9.734991073608398 11.12358093261719 7.68873119354248 11.12358093261719 Z" stroke="none"/>
    <path d="M 10.4696216583252 2.000000953674316 L 10.33964157104492 2.13563060760498 L 2.124532699584961 7.992400169372559 C 2.150844573974609 8.07072925567627 2.182622909545898 8.16168212890625 2.220981597900391 8.267181396484375 L 2.241411209106445 8.326210975646973 C 2.242826461791992 8.330506324768066 2.440652847290039 8.809717178344727 2.941255569458008 9.30640697479248 C 3.30388069152832 9.642560005187988 3.910579681396484 10.04779148101807 4.761411666870117 10.10450077056885 C 4.86113166809082 10.11023044586182 5.34602165222168 10.12357044219971 7.689190864562988 10.12357044219971 C 9.734500885009766 10.12357044219971 12.32136154174805 10.11382102966309 14.21020126342773 10.1067008972168 C 15.19322109222412 10.10300064086914 15.96967124938965 10.10007095336914 16.29282188415527 10.10007095336914 C 16.31195259094238 10.10007095336914 16.32965469360352 10.1000804901123 16.34586334228516 10.10009956359863 C 16.64932060241699 10.05349922180176 17.45428657531738 9.792966842651367 17.82260322570801 9.481327056884766 C 18.25089263916016 9.096464157104492 18.50998687744141 8.732490539550781 18.66213798522949 8.447074890136719 L 10.57014083862305 2.102800369262695 L 10.47181129455566 2.000201225280762 C 10.47159194946289 2.000141143798828 10.47077655792236 2.000001907348633 10.4696216583252 2.000000953674316 M 10.4696159362793 -1.9073486328125e-06 C 10.99476623535156 -1.9073486328125e-06 11.51991653442383 0.2053956985473633 11.9135913848877 0.6161909103393555 L 20.8387508392334 7.611990928649902 C 20.9675407409668 8.388481140136719 20.52289199829102 9.752010345458984 19.14155197143555 10.98492050170898 C 18.27679061889648 11.73408126831055 16.80364608764648 12.10226726531982 16.40583038330078 12.10027122497559 C 15.85901069641113 12.09754276275635 11.00595664978027 12.12357521057129 7.689188957214355 12.12357521057129 C 6.11909294128418 12.12357521057129 4.893706321716309 12.1177453994751 4.631540298461914 12.10027122497559 C 4.278310775756836 12.07673072814941 2.861480712890625 11.97562122344971 1.556520462036133 10.74975109100342 C 0.6359920501708984 9.847101211547852 0.3413810729980469 8.950620651245117 0.3413810729980469 8.950620651245117 C -0.01927947998046875 7.958730697631836 -0.1659183502197266 7.310490608215332 0.2618503570556641 6.864130973815918 L 9.025641441345215 0.6161909103393555 C 9.419316291809082 0.2053956985473633 9.944466590881348 -1.9073486328125e-06 10.4696159362793 -1.9073486328125e-06 Z" stroke="none" fill="#707070"/>
  </g>
</svg>
