<svg xmlns="http://www.w3.org/2000/svg" width="55" height="54" viewBox="0 0 55 54">
  <g id="Group_6344" data-name="Group 6344" transform="translate(-0.241)">
    <rect id="Rectangle_952" data-name="Rectangle 952" width="55" height="54" rx="27" transform="translate(0.241)" fill="#0076e8"/>
    <path id="Path_271" data-name="Path 271" d="M778.491-490.745v5.16h4.4v14.312H788.2v-14.312h4.351l.728-5.16H788.2s-.064-2.88,0-3.6a2.839,2.839,0,0,1,.458-1.489,2.711,2.711,0,0,1,1.53-.643c.744-.017,3.24,0,3.24,0v-4.638l-2.464-.167a12.856,12.856,0,0,0-3.453.167,5.859,5.859,0,0,0-3.319,2.167,7.983,7.983,0,0,0-1.308,4.935c0,2.045,0,3.27,0,3.27Z" transform="translate(-757.951 513.935)" fill="#fff"/>
  </g>
</svg>
