<svg xmlns="http://www.w3.org/2000/svg" width="38.715" height="30" viewBox="0 0 38.715 30">
  <g id="Group_7383" data-name="Group 7383" transform="translate(-636.975 -935.687)">
    <path id="Path_2918" data-name="Path 2918" d="M10309.428,6928.989c.04,4.537,0,11.492,0,11.492v3.846s-.437,3.908,4.876,3.876,13.831,0,13.831,0h10.349s3.323-.1,3.265-4.232,0-11.415,0-11.415.418-3.664-4.116-3.647-12.114,0-12.114,0l-4.284-4.219h-7.969S10309.386,6924.453,10309.428,6928.989Z" transform="translate(-9666.068 -5989)" fill="#406eac"/>
    <path id="Union_92" data-name="Union 92" d="M.035,18.095a1.639,1.639,0,0,1-.021-.265V16c-.025-4.68-.011-5.979,0-6.334V1.673a1.672,1.672,0,1,1,3.344,0V17.635a5.739,5.739,0,0,0,5.471,4.932h21.8a1.672,1.672,0,0,1,0,3.343H15.3v.016H8.721C8,25.926.375,25.745.035,18.095Z" transform="translate(636.975 939.761)" fill="#406eac"/>
  </g>
</svg>
