<svg id="Group_6672" data-name="Group 6672" xmlns="http://www.w3.org/2000/svg" width="54" height="54" viewBox="0 0 54 54">
  <g id="Rectangle_954" data-name="Rectangle 954" fill="#fff" stroke="#bdbdbd" stroke-width="1">
    <rect width="54" height="54" rx="27" stroke="none"/>
    <rect x="0.5" y="0.5" width="53" height="53" rx="26.5" fill="none"/>
  </g>
  <g id="Google" transform="translate(15.557 15.386)">
    <path id="Path_272" data-name="Path 272" d="M83.832,61.49A14.506,14.506,0,0,0,83.62,59H72v4.717h6.655a5.667,5.667,0,0,1-2.461,3.722V70.5h3.972A11.94,11.94,0,0,0,83.832,61.49Z" transform="translate(-59.679 -48.964)" fill="#4285f4"/>
    <path id="Path_273" data-name="Path 273" d="M18.679,95.683a11.834,11.834,0,0,0,8.166-2.956l-3.972-3.062A7.494,7.494,0,0,1,11.762,85.78H7.67v3.155a12.33,12.33,0,0,0,11.009,6.748Z" transform="translate(-6.358 -71.188)" fill="#34a853"/>
    <path id="Path_274" data-name="Path 274" d="M5.407,47.513a7.3,7.3,0,0,1,0-4.688V39.67H1.315a12.181,12.181,0,0,0,0,11Z" transform="translate(-0.003 -32.921)" fill="#fbbc04"/>
    <path id="Path_275" data-name="Path 275" d="M18.68,4.844a6.712,6.712,0,0,1,4.727,1.837h0l3.517-3.5A11.878,11.878,0,0,0,18.68,0,12.329,12.329,0,0,0,7.671,6.743L11.763,9.9A7.365,7.365,0,0,1,18.68,4.844Z" transform="translate(-6.359 0.005)" fill="#ea4335"/>
  </g>
</svg>
