<svg xmlns="http://www.w3.org/2000/svg" width="39.07" height="30" viewBox="0 0 39.07 30">
  <g id="Group_7384" data-name="Group 7384" transform="translate(-699.975 -974.802)">
    <path id="Union_92" data-name="Union 92" d="M.036,18.477a1.693,1.693,0,0,1-.021-.271V16.335C-.011,11.557,0,10.23.014,9.867V1.708a1.707,1.707,0,1,1,3.414,0v16.3a5.861,5.861,0,0,0,5.587,5.037H31.272a1.707,1.707,0,0,1,0,3.414H15.625v.017H8.9C8.17,26.474.383,26.289.036,18.477Z" transform="translate(699.975 978.328)" fill="#406eac"/>
    <path id="Icon_awesome-images" data-name="Icon awesome-images" d="M47.178,23.022V5.53A3.28,3.28,0,0,0,43.9,2.25H17.66a3.28,3.28,0,0,0-3.28,3.28V23.022a3.28,3.28,0,0,0,3.28,3.28H43.9A3.28,3.28,0,0,0,47.178,23.022ZM25.313,8.81a3.28,3.28,0,1,1-3.28-3.28A3.28,3.28,0,0,1,25.313,8.81Zm-6.56,9.839,3.793-3.793a.82.82,0,0,1,1.16,0l2.7,2.7,9.26-9.26a.82.82,0,0,1,1.16,0l5.98,5.98v7.653H18.754Z" transform="translate(691.867 972.552)" fill="#406eac"/>
  </g>
</svg>
