<svg xmlns="http://www.w3.org/2000/svg" width="43.563" height="48.814" viewBox="0 0 43.563 48.814">
  <g id="Group_7132" data-name="Group 7132" transform="translate(-1322 -596.996)">
    <path id="Path_2562" data-name="Path 2562" d="M6804.313,6246.894l3.957,3.291v-3.777h-3.957Z" transform="translate(-5481.71 -5631.817)" fill="#3b8aa8"/>
    <g id="Group_7124" data-name="Group 7124" transform="translate(1326.103 596.996)">
      <path id="Path_2560" data-name="Path 2560" d="M2.3,0,28.913.036,39.46,11.062l-.038,8.133-.061,25.226c0,2.426-1.03,4.393-2.3,4.393H2.3c-1.27,0-2.3-1.967-2.3-4.393V4.393C0,1.967,1.03,0,2.3,0Z" transform="translate(0 0)" fill="#f5f5f5"/>
      <path id="Path_2559" data-name="Path 2559" d="M10.48,28.554H3.414A3.452,3.452,0,0,1,.006,25.059V17.507Z" transform="translate(28.942 -17.507)" fill="#e0e0e0"/>
    </g>
    <g id="Group_7125" data-name="Group 7125" transform="translate(1322 603.369)">
      <rect id="Rectangle_1065" data-name="Rectangle 1065" width="27.324" height="12.322" rx="2" fill="#50bee8"/>
      <path id="Path_2563" data-name="Path 2563" d="M1.63.1A3.8,3.8,0,0,1,.23-.13v-.92A3.013,3.013,0,0,0,.8-.885,3.282,3.282,0,0,0,1.44-.82,1.274,1.274,0,0,0,2.375-1.1,1.243,1.243,0,0,0,2.64-1.98V-6.44H3.73V-1.8A1.835,1.835,0,0,1,3.205-.39,2.235,2.235,0,0,1,1.63.1ZM4.94,0V-6.44H7.81a2.394,2.394,0,0,1,1.22.28,1.728,1.728,0,0,1,.71.765A2.549,2.549,0,0,1,9.97-4.29a2.053,2.053,0,0,1-.6,1.54,2.2,2.2,0,0,1-1.605.58H6.03V0ZM6.03-3.03H7.57a1.306,1.306,0,0,0,.98-.34,1.265,1.265,0,0,0,.33-.92,1.36,1.36,0,0,0-.315-.96,1.227,1.227,0,0,0-.945-.34H6.03ZM13.84.1a3.126,3.126,0,0,1-2.4-.86,3.273,3.273,0,0,1-.8-2.33,4.428,4.428,0,0,1,.35-1.835,2.582,2.582,0,0,1,1.065-1.2,3.542,3.542,0,0,1,1.815-.42,6.53,6.53,0,0,1,1.035.075,5.331,5.331,0,0,1,.875.215v.94a5.264,5.264,0,0,0-1.82-.3,2.04,2.04,0,0,0-1.725.65,3.04,3.04,0,0,0-.5,1.87,2.454,2.454,0,0,0,.52,1.69,2.056,2.056,0,0,0,1.61.58,4.011,4.011,0,0,0,1.39-.2v-1.8H13.65v-.71h2.54v3.1a3.4,3.4,0,0,1-.885.365A5.426,5.426,0,0,1,13.84.1Z" transform="translate(5.452 9.381)" fill="#fff"/>
    </g>
    <path id="Icon_awesome-image" data-name="Icon awesome-image" d="M19.293,20.467H2a2,2,0,0,1-2-2V6.5a2,2,0,0,1,2-2h17.3a2,2,0,0,1,2,2V18.471A2,2,0,0,1,19.293,20.467ZM4.657,6.828A2.328,2.328,0,1,0,6.985,9.157,2.328,2.328,0,0,0,4.657,6.828Zm-2,10.977H18.628V13.149L14.989,9.51a.5.5,0,0,0-.706,0L8.649,15.145,6.34,12.836a.5.5,0,0,0-.706,0L2.661,15.81Z" transform="translate(1335.781 616.902)" fill="#e0e0e0"/>
  </g>
</svg>
