<svg id="Group_7209" data-name="Group 7209" xmlns="http://www.w3.org/2000/svg" width="33.68" height="35" viewBox="0 0 33.68 35">
  <path id="Path_2620" data-name="Path 2620" d="M616.235,92.577c0,8.945-6.955,16.194-15.535,16.194s-15.534-7.249-15.534-16.194,6.957-16.192,15.534-16.192,15.535,7.249,15.535,16.192" transform="translate(-583.926 -74.972)" fill="#fff"/>
  <path id="Path_2621" data-name="Path 2621" d="M624.421,181.917a5.333,5.333,0,0,0-2.615-.747,6.046,6.046,0,0,0-2.6.733,6.342,6.342,0,0,1-2.8.77,5.763,5.763,0,0,1-2.541-.718,6.365,6.365,0,0,0-2.815-.777,6.205,6.205,0,0,0-2.6.719,6.483,6.483,0,0,1-2.808.756l-.177,0c.113.141.231.283.356.425a7.063,7.063,0,0,0,2.8-.791,5.787,5.787,0,0,1,2.43-.68,5.907,5.907,0,0,1,2.635.735,6.164,6.164,0,0,0,2.722.757,6.644,6.644,0,0,0,2.975-.81,5.667,5.667,0,0,1,2.423-.69,4.931,4.931,0,0,1,2.422.7,5.806,5.806,0,0,0,2.894.8c.127-.14.253-.287.368-.436-.11.008-.227.012-.345.012a5.46,5.46,0,0,1-2.725-.758" transform="translate(-599.815 -155.995)" fill="#99877d"/>
  <path id="Path_2622" data-name="Path 2622" d="M624.254,185.186a6.05,6.05,0,0,0-2.6.731,6.337,6.337,0,0,1-2.8.768,5.782,5.782,0,0,1-2.54-.714,6.319,6.319,0,0,0-2.816-.775,6.146,6.146,0,0,0-2.6.719,7.312,7.312,0,0,1-2.307.728c.117.127.239.254.364.381a8.3,8.3,0,0,0,2.115-.723,5.737,5.737,0,0,1,2.43-.683,5.9,5.9,0,0,1,2.635.738,6.171,6.171,0,0,0,2.722.757,6.724,6.724,0,0,0,2.976-.808,5.579,5.579,0,0,1,2.422-.692,4.926,4.926,0,0,1,2.422.7,6.31,6.31,0,0,0,2.183.759c.13-.129.255-.26.38-.391a5.7,5.7,0,0,1-2.371-.746,5.334,5.334,0,0,0-2.615-.747" transform="translate(-602.263 -159.103)" fill="#99877d"/>
  <path id="Path_2623" data-name="Path 2623" d="M626.714,188.89a6.025,6.025,0,0,0-2.6.733,6.363,6.363,0,0,1-2.8.768,5.733,5.733,0,0,1-2.54-.718,6.371,6.371,0,0,0-2.816-.775,6.12,6.12,0,0,0-2.6.719,9.337,9.337,0,0,1-1.624.611c.125.115.245.226.372.338a11.5,11.5,0,0,0,1.425-.563,5.763,5.763,0,0,1,2.43-.681,5.929,5.929,0,0,1,2.634.736,6.2,6.2,0,0,0,2.722.755,6.7,6.7,0,0,0,2.976-.806,5.619,5.619,0,0,1,2.422-.692,4.928,4.928,0,0,1,2.422.7,7.7,7.7,0,0,0,1.466.615c.13-.112.258-.226.383-.344a6.7,6.7,0,0,1-1.657-.65,5.354,5.354,0,0,0-2.615-.745" transform="translate(-604.723 -161.968)" fill="#99877d"/>
  <path id="Path_2624" data-name="Path 2624" d="M595.5,69.876c-9.3,0-16.839,7.834-16.839,17.5s7.537,17.5,16.839,17.5,16.841-7.836,16.841-17.5-7.541-17.5-16.841-17.5m0,32.21c-7.813,0-14.15-6.587-14.15-14.711s6.337-14.706,14.15-14.706,14.152,6.585,14.152,14.706-6.337,14.711-14.152,14.711" transform="translate(-578.656 -69.876)" fill="#ed1c2e"/>
  <path id="Path_2625" data-name="Path 2625" d="M666.931,128.061a2.73,2.73,0,0,1-.921,1.311c-.652.53-4.959,3.193-5.445,3.811A3.625,3.625,0,0,0,660,135.4v5.12h.653v-1.332a2.72,2.72,0,0,1,.786-1.721,41.21,41.21,0,0,1,4.308-3.111,3.267,3.267,0,0,0,1.2-2.95v-3.5Z" transform="translate(-642.506 -114.507)" fill="#00a94f"/>
  <path id="Path_2626" data-name="Path 2626" d="M656.236,107.2c.484-.605,4.974-3.348,5.618-3.875a3.216,3.216,0,0,0,1.4-2.335V95.24a3.661,3.661,0,0,1-1.036,2.193c-.668.867-3.7,2.51-5.2,3.563a3.922,3.922,0,0,0-2.018,3.4v10.554h.651v-5.571a3.512,3.512,0,0,1,.536-2.175" transform="translate(-638.595 -89.21)" fill="#00a94f"/>
  <path id="Path_2627" data-name="Path 2627" d="M624.537,101.5a54.085,54.085,0,0,1-4.49-3.749A3.968,3.968,0,0,1,619,95.535v5.343a3.975,3.975,0,0,0,1.689,3.092,46.9,46.9,0,0,1,3.743,2.933,4.186,4.186,0,0,1,1.082,3.019v5.258h.651V104.837a3.377,3.377,0,0,0-1.672-3.335" transform="translate(-610.413 -89.438)" fill="#00a94f"/>
</svg>
