<svg xmlns="http://www.w3.org/2000/svg" width="35.628" height="35" viewBox="0 0 35.628 35">
  <path id="Union_90" data-name="Union 90" d="M18.663,35a15.661,15.661,0,0,1-4.818-1.166,7.088,7.088,0,0,1-1.446-.285,5.234,5.234,0,0,1-2.49-1.531,3.965,3.965,0,0,1-.925-2.664,4.213,4.213,0,0,1,.691-2.248A3.177,3.177,0,0,1,11.121,26a4.226,4.226,0,0,1,1.524-.314c.042,0,.083,0,.122,0,.679.032,2.138.785,2.132,1.029,0,.054-.07.081-.205.081h-.046a6.685,6.685,0,0,1-.7-.084A7.578,7.578,0,0,0,12.8,26.6a2.47,2.47,0,0,0-1.935.791,2.823,2.823,0,0,0-.078,3.9,5.375,5.375,0,0,0,2.448,1.357l0,0a3.518,3.518,0,0,1-.624-2.292c.091-1.048,1.728-2.032,2.175-2.032.051,0,.083.013.1.04.022.044-.011.125-.1.234-.066.084-.135.168-.208.257l-.009.011c-.648.792-1.382,1.69-.821,2.751a3.1,3.1,0,0,0,2.7,1.439,3.716,3.716,0,0,0,2-.6,10.553,10.553,0,0,0,3.192-3.593l-.009,0a7.177,7.177,0,0,1-.889.054,5.308,5.308,0,0,1-1.491-.189c-1.08-.32-1.291-.741-1.293-.746h-.006a1.918,1.918,0,0,1-1.678-.879,1.554,1.554,0,0,1,.215-1.625c0,.009.279.977.8,1.223a2.757,2.757,0,0,1,.464.295.647.647,0,0,0,.231.139.029.029,0,0,0,.025-.011c.024-.031.007-.132-.054-.327a1.352,1.352,0,0,1,.217-1.085c.061-.081.121-.125.168-.125a.07.07,0,0,1,.05.021.405.405,0,0,1,.055.271,1.542,1.542,0,0,0,.395,1.1.862.862,0,0,0,.629.263,1.535,1.535,0,0,0,.778-.254,5.392,5.392,0,0,0,2.175-3.113,1.9,1.9,0,0,0-.275-1.569,6.313,6.313,0,0,0-2.409-1.949l-1.782,1.7a.646.646,0,0,1,.489.667c-.107.336-.441.69-.65.69a.137.137,0,0,1-.108-.047.615.615,0,0,1-.05-.465c-.06-.292-.216-.353-.336-.353a.391.391,0,0,0-.148.029,4.757,4.757,0,0,1-2.012.814c-.063,0-.128.007-.192.007a3.862,3.862,0,0,1-1.018-.16l-.174-.049a2.281,2.281,0,0,0-.522-.112.231.231,0,0,0-.156.046c-.114.1-.034.312.036.5.056.152.109.3.062.365a.118.118,0,0,1-.1.044H13.07c-.2,0-.573-.3-.748-.686a.67.67,0,0,1,.072-.771,3.534,3.534,0,0,1,2.46-.945h.086c.3.007.6.011.9.011.495,0,.816-.01.83-.011l1.776-1.54h-.011a8.1,8.1,0,0,1-1.765-.421,3.779,3.779,0,0,1-1.095-.82l-.928,1.068c.035.068.326.665,0,.994a2.079,2.079,0,0,1-.98.543.116.116,0,0,1-.1-.042c-.029-.042-.02-.117.025-.22.253-.575,0-.839,0-.841-.019.038-.222.372-1.4.56a2.734,2.734,0,0,1-.425.034,2.81,2.81,0,0,1-.982-.186c-.082-.031-.155-.061-.221-.087a1.06,1.06,0,0,0-.315-.1.093.093,0,0,0-.095.058,1.209,1.209,0,0,0-.03.456c.009.214.018.435-.064.518a.119.119,0,0,1-.089.036.233.233,0,0,1-.06-.009.861.861,0,0,1-.473-.524A1.115,1.115,0,0,1,9.491,20.1a2.19,2.19,0,0,1,1.9-.748l.159,0c.241.007.554.011.931.011.613,0,1.2-.01,1.262-.011l1.039-1.217-.011-.01c-.155-.144-.465-.437-.8-.786a3.38,3.38,0,0,1-.569-1.055c-.072-.183-.124-.316-.156-.316a.014.014,0,0,0-.01,0,1.022,1.022,0,0,0-.088.144v0c-.212.373-.775,1.363-1.595,1.568a4.782,4.782,0,0,1-1.128.11,11.794,11.794,0,0,1-1.52-.11,1.963,1.963,0,0,1-.84,1.665,9.453,9.453,0,0,1-2.189,1.005v0a3.868,3.868,0,0,1-.128,1.7A8.283,8.283,0,0,1,4.425,23.6l0,0c.1.238,2.482,5.849,2.162,7.113C6.3,31.844,5.7,32.081,5.236,32.081a1.553,1.553,0,0,1-.43-.064c-.467-.135-1.051-.7-1.019-.918.009-.059.06-.089.153-.089a.963.963,0,0,1,.254.046,3.252,3.252,0,0,0,.863.156.567.567,0,0,0,.5-.2c.138-.2.089-.575-.145-1.1-.257-.579-.76-1.59-1.293-2.661l0,0c-.839-1.687-1.791-3.6-2.04-4.342A11.276,11.276,0,0,1,1.6,20.358h0a.794.794,0,0,1-.22.03.941.941,0,0,1-.7-.327,2.722,2.722,0,0,1-.571-1.4A12.624,12.624,0,0,1,.1,15.452c.5-5.064,1.81-5.321,2.067-5.321h.025A.764.764,0,0,1,1.58,9.75c-.114-.269.012-.644.376-1.115l0-.006A14.41,14.41,0,0,1,6.474,4.436a5.637,5.637,0,0,1,2.582-.883A1.217,1.217,0,0,1,10.389,4.9,1.225,1.225,0,0,0,11.6,6.242a2.286,2.286,0,0,0,1.759-1.093c.2-.288.417-.625.646-.983.255-.4.526-.824.818-1.244-.44-.063-1.7-.339-1.594-1.416.128-1.3,1.5-.555,1.184-.182s-.766.431-.314.634a4.362,4.362,0,0,0,1.271.22l.109-.137a.728.728,0,0,1-.588-.654c-.009-.636.589-.837.688-.418.088.374.211.448.471.429a4.091,4.091,0,0,1,2.3-1.33A6.178,6.178,0,0,1,19.225,0a2.255,2.255,0,0,1,1.422.37.791.791,0,0,1,.284.37,2.285,2.285,0,0,1,.908.326c.4.265.432.464.433.471h0A1.945,1.945,0,0,1,22.8,1.46a.923.923,0,0,1,.848.425A.961.961,0,0,1,23.5,3.054,1.7,1.7,0,0,0,22.2,2.4a2.272,2.272,0,0,0-1.269.45,8.1,8.1,0,0,0-1.606,1.425A2.965,2.965,0,0,0,18.55,5.86a1.268,1.268,0,0,0,.438,1.069,3.478,3.478,0,0,0,2.268.834c.991,0,1.647-.442,1.755-1.182.029-.2.052-.4.074-.6.135-1.206.263-2.345,1.823-2.345a4.38,4.38,0,0,1,.675.058,11.052,11.052,0,0,1,4.024,1.81,27.837,27.837,0,0,1,3.059,2.329,1.528,1.528,0,0,1,.663,1.143.749.749,0,0,1-.291.539l0,0a8.773,8.773,0,0,1,1.341,1.661,8.465,8.465,0,0,1,.895,1.885,6.9,6.9,0,0,1,.346,2.415,15.009,15.009,0,0,1-.663,4.016,5.077,5.077,0,0,1-.648,1.451.117.117,0,0,1-.074.022,1.084,1.084,0,0,1-.415-.175v0a13.41,13.41,0,0,1-1.45,4.279c-.377.763-.782,1.469-1.173,2.152-.984,1.718-1.76,3.074-1.354,4.06a.722.722,0,0,0,.673.529,1.681,1.681,0,0,0,.747-.243c.063-.034.123-.068.176-.1a.981.981,0,0,1,.312-.145.041.041,0,0,1,.034.014c.015.019.013.057,0,.117a1.7,1.7,0,0,1-1.606,1.185.945.945,0,0,1-.109.007.965.965,0,0,1-.71-.341,2.334,2.334,0,0,1-.572-1.6,14.4,14.4,0,0,1,1.234-4.835c.913-1.875,1.146-2.461,1.156-2.485h0a2.812,2.812,0,0,1-.726-.461A3.547,3.547,0,0,1,29.356,21.2a8.926,8.926,0,0,1-.294-3.211,3.277,3.277,0,0,1-1.634.368c-.074,0-.15,0-.226-.005a6.185,6.185,0,0,1-2.466-.821l.006.008a12.817,12.817,0,0,1,.978,1.674,7.715,7.715,0,0,1,.9,3.517A10.564,10.564,0,0,1,26.125,26a9.076,9.076,0,0,1,.247,2.054,7.319,7.319,0,0,1-.223,1.9,4.945,4.945,0,0,1-.926,1.878A8.308,8.308,0,0,1,18.793,35Zm4.244-6.308a7.521,7.521,0,0,1-1.824,3.427A8.384,8.384,0,0,1,17.3,33.956a5.5,5.5,0,0,0,.648.032,8.039,8.039,0,0,0,4.119-1.124,5.292,5.292,0,0,0,2.883-4.173,12.13,12.13,0,0,0,0-1.647Z" fill="#00a3e3"/>
</svg>
