<svg xmlns="http://www.w3.org/2000/svg" width="172.32" height="39.393" viewBox="0 0 172.32 39.393">
  <g id="Group_6736" data-name="Group 6736" transform="translate(0 0)">
    <g id="Group_6726" data-name="Group 6726" transform="translate(0 0)">
      <path id="Path_1809" data-name="Path 1809" d="M5.76-20.924V-45.7H11v20.435H21.06v4.337Z" transform="translate(-5.76 47.292)" fill="#406eac"/>
      <path id="Path_1808" data-name="Path 1808" d="M11.709-41.6a9.074,9.074,0,0,1,5.846,1.648,6.119,6.119,0,0,1,2.03,5.048v12.629H15.976L14.97-24.839h-.139a8.052,8.052,0,0,1-2.567,2.22,8.23,8.23,0,0,1-3.712.694,6.144,6.144,0,0,1-4.2-1.457,5.73,5.73,0,0,1-1.665-4.545A4.972,4.972,0,0,1,4.8-32.368a12.409,12.409,0,0,1,6.349-1.6l3.3-.1V-34.9a2.782,2.782,0,0,0-.781-2.186,3.151,3.151,0,0,0-2.168-.694,9.292,9.292,0,0,0-2.706.4,22.212,22.212,0,0,0-2.637.989l-1.7-3.5a15.766,15.766,0,0,1,3.365-1.232A15.962,15.962,0,0,1,11.709-41.6ZM14.45-31.05l-2.012.069a5.688,5.688,0,0,0-3.469.9A2.739,2.739,0,0,0,8-27.893,1.938,1.938,0,0,0,8.69-26.21a3,3,0,0,0,1.8.5A4.15,4.15,0,0,0,13.3-26.7a3.491,3.491,0,0,0,1.145-2.793Zm27.062,8.778L40.054-28.9q-.139-.59-.4-1.752t-.572-2.5q-.312-1.336-.59-2.463t-.382-1.648h-.139q-.1.52-.364,1.648t-.572,2.463q-.312,1.336-.59,2.515t-.416,1.8L34.5-22.272H28.952L23.574-41.215h5.135l2.186,8.4a20.689,20.689,0,0,1,.434,2.1q.191,1.2.347,2.325t.26,1.787h.139q.035-.486.139-1.3t.26-1.683q.156-.867.278-1.561t.191-.971l2.325-9.09h5.69l2.22,9.09q.1.486.312,1.561t.347,2.186q.139,1.11.173,1.769h.139q.069-.59.243-1.717t.4-2.359q.226-1.232.468-2.134l2.255-8.4h5.065L47.132-22.272Zm20.331,0h-5.17V-48.64h5.17ZM70.9-48.64a3.565,3.565,0,0,1,1.978.538,2.195,2.195,0,0,1,.833,1.995,2.2,2.2,0,0,1-.833,1.978,3.482,3.482,0,0,1-1.978.555A3.461,3.461,0,0,1,68.9-44.13a2.221,2.221,0,0,1-.815-1.978A2.215,2.215,0,0,1,68.9-48.1,3.544,3.544,0,0,1,70.9-48.64Zm2.567,7.425v18.943H68.3V-41.215ZM84.429-22.272,77.212-41.215h5.412l3.643,10.79a14.191,14.191,0,0,1,.486,2.012q.173,1.041.243,1.874h.139a15.19,15.19,0,0,1,.763-3.886l3.643-10.79h5.412L89.737-22.272Zm24.078-19.29a8.5,8.5,0,0,1,6.21,2.238,8.5,8.5,0,0,1,2.29,6.366v2.5H104.795a4.914,4.914,0,0,0,1.3,3.435,4.582,4.582,0,0,0,3.417,1.249,14.117,14.117,0,0,0,3.313-.364,15.823,15.823,0,0,0,3.105-1.128v3.99a12.927,12.927,0,0,1-2.949,1.023,17.886,17.886,0,0,1-3.712.33,11.41,11.41,0,0,1-5.031-1.058,7.889,7.889,0,0,1-3.435-3.192,10.628,10.628,0,0,1-1.249-5.43,12.109,12.109,0,0,1,1.128-5.516,7.627,7.627,0,0,1,3.14-3.331A9.54,9.54,0,0,1,108.507-41.562Zm.035,3.678a3.381,3.381,0,0,0-2.5.971,4.708,4.708,0,0,0-1.145,3.018h7.251a4.677,4.677,0,0,0-.919-2.845A3.185,3.185,0,0,0,108.542-37.885Zm24.286-3.678q.382,0,.9.035a5.767,5.767,0,0,1,.833.1l-.382,4.857a5.9,5.9,0,0,0-.729-.121,7.055,7.055,0,0,0-.8-.052,6.977,6.977,0,0,0-2.533.468,4.231,4.231,0,0,0-1.96,1.509,4.8,4.8,0,0,0-.746,2.845v9.645h-5.17V-41.215h3.921l.763,3.192h.243a7.832,7.832,0,0,1,2.29-2.5A5.642,5.642,0,0,1,132.828-41.562Zm3.5.347h5.655l3.574,10.651a10.145,10.145,0,0,1,.416,1.6q.139.8.208,1.7h.1q.1-.9.278-1.7a13.743,13.743,0,0,1,.451-1.6l3.5-10.651h5.551l-8.015,21.372A9.292,9.292,0,0,1,144.9-15.42a7.92,7.92,0,0,1-4.753,1.475,11.345,11.345,0,0,1-1.527-.087q-.625-.087-1.11-.191v-4.094q.347.069.9.139a9.226,9.226,0,0,0,1.145.069,3.367,3.367,0,0,0,2.567-.989,6.552,6.552,0,0,0,1.423-2.377l.312-.937Z" transform="translate(16.247 48.64)" fill="#434343"/>
    </g>
    <path id="Path_1810" data-name="Path 1810" d="M5.584-4.865H3.343V1.356H2.428V-4.865H.191v-.752H5.584ZM7.66-3.2a1.884,1.884,0,0,1,1.533-.723q1.643,0,1.657,1.853V1.356H9.964V-2.073A1.193,1.193,0,0,0,9.707-2.9a1.027,1.027,0,0,0-.783-.268,1.279,1.279,0,0,0-.757.23,1.561,1.561,0,0,0-.508.6V1.356H6.774V-6H7.66Zm6.961,4.65A2.264,2.264,0,0,1,12.906.76a2.569,2.569,0,0,1-.661-1.851v-.163a3.11,3.11,0,0,1,.295-1.377,2.3,2.3,0,0,1,.824-.948,2.071,2.071,0,0,1,1.147-.342,1.941,1.941,0,0,1,1.571.666,2.882,2.882,0,0,1,.56,1.906v.369H13.131A1.842,1.842,0,0,0,13.579.257a1.408,1.408,0,0,0,1.09.472,1.543,1.543,0,0,0,.8-.192,2,2,0,0,0,.57-.508l.541.421A2.176,2.176,0,0,1,14.621,1.452Zm-.11-4.646a1.182,1.182,0,0,0-.9.39,1.9,1.9,0,0,0-.45,1.094h2.6v-.067a1.688,1.688,0,0,0-.364-1.046A1.113,1.113,0,0,0,14.511-3.193Zm7.135,4.55H20.76V-6h.886Zm3.862.1A2.264,2.264,0,0,1,23.794.76a2.569,2.569,0,0,1-.661-1.851v-.163a3.11,3.11,0,0,1,.295-1.377,2.3,2.3,0,0,1,.824-.948A2.071,2.071,0,0,1,25.4-3.921a1.941,1.941,0,0,1,1.571.666,2.882,2.882,0,0,1,.56,1.906v.369H24.019A1.842,1.842,0,0,0,24.467.257a1.408,1.408,0,0,0,1.09.472,1.543,1.543,0,0,0,.8-.192,2,2,0,0,0,.57-.508l.541.421A2.176,2.176,0,0,1,25.508,1.452ZM25.4-3.193a1.182,1.182,0,0,0-.9.39,1.9,1.9,0,0,0-.45,1.094h2.6v-.067a1.688,1.688,0,0,0-.364-1.046A1.113,1.113,0,0,0,25.4-3.193Zm3.24,1.916a3.046,3.046,0,0,1,.56-1.928,1.792,1.792,0,0,1,1.485-.716,1.783,1.783,0,0,1,1.48.67l.043-.575h.809V1.232a2.108,2.108,0,0,1-.6,1.585,2.2,2.2,0,0,1-1.6.579,2.665,2.665,0,0,1-1.1-.239A1.888,1.888,0,0,1,28.9,2.5l.46-.532a1.733,1.733,0,0,0,1.394.7,1.358,1.358,0,0,0,1.008-.364,1.391,1.391,0,0,0,.362-1.025V.839a1.821,1.821,0,0,1-1.451.613A1.77,1.77,0,0,1,29.2.719,3.2,3.2,0,0,1,28.638-1.278Zm.891.1A2.323,2.323,0,0,0,29.888.2a1.167,1.167,0,0,0,1.006.5,1.3,1.3,0,0,0,1.231-.761V-2.427A1.313,1.313,0,0,0,30.9-3.17a1.178,1.178,0,0,0-1.011.5A2.531,2.531,0,0,0,29.529-1.177Zm8.316,2.534A1.861,1.861,0,0,1,37.72.81a1.977,1.977,0,0,1-1.475.642,1.829,1.829,0,0,1-1.257-.433A1.4,1.4,0,0,1,34.5-.08a1.465,1.465,0,0,1,.615-1.257,2.9,2.9,0,0,1,1.731-.448h.862v-.407a1,1,0,0,0-.278-.74,1.116,1.116,0,0,0-.819-.275,1.292,1.292,0,0,0-.8.239.706.706,0,0,0-.321.579H34.6a1.223,1.223,0,0,1,.275-.75,1.88,1.88,0,0,1,.747-.572,2.513,2.513,0,0,1,1.037-.211,2.049,2.049,0,0,1,1.4.448,1.615,1.615,0,0,1,.527,1.233V.145a2.916,2.916,0,0,0,.182,1.135v.077ZM36.375.681a1.557,1.557,0,0,0,.79-.216,1.3,1.3,0,0,0,.541-.56V-1.158h-.694q-1.628,0-1.628.953a.807.807,0,0,0,.278.651A1.068,1.068,0,0,0,36.375.681Zm4.863.675h-.886V-6h.886ZM47.751.729a1.276,1.276,0,0,0,.829-.287,1.011,1.011,0,0,0,.393-.718h.838A1.607,1.607,0,0,1,49.5.571a2.019,2.019,0,0,1-.754.642,2.177,2.177,0,0,1-1,.239A2.135,2.135,0,0,1,46.067.746a2.814,2.814,0,0,1-.625-1.932v-.148a3.12,3.12,0,0,1,.278-1.346,2.116,2.116,0,0,1,.8-.915,2.265,2.265,0,0,1,1.228-.326,2.078,2.078,0,0,1,1.449.522,1.866,1.866,0,0,1,.615,1.355h-.838a1.221,1.221,0,0,0-.381-.826,1.184,1.184,0,0,0-.845-.323,1.24,1.24,0,0,0-1.046.486A2.283,2.283,0,0,0,46.328-1.3v.168A2.237,2.237,0,0,0,46.7.245,1.246,1.246,0,0,0,47.751.729Zm3.115-2.011a3.061,3.061,0,0,1,.3-1.37A2.233,2.233,0,0,1,52-3.591a2.268,2.268,0,0,1,1.219-.33,2.185,2.185,0,0,1,1.712.733,2.819,2.819,0,0,1,.654,1.949v.062a3.087,3.087,0,0,1-.29,1.358,2.2,2.2,0,0,1-.829.936,2.294,2.294,0,0,1-1.238.335A2.18,2.18,0,0,1,51.519.719a2.8,2.8,0,0,1-.654-1.94Zm.891.105a2.217,2.217,0,0,0,.4,1.384,1.28,1.28,0,0,0,1.07.522A1.272,1.272,0,0,0,54.3.2a2.424,2.424,0,0,0,.4-1.482,2.213,2.213,0,0,0-.4-1.382,1.287,1.287,0,0,0-1.075-.529,1.272,1.272,0,0,0-1.058.522A2.406,2.406,0,0,0,51.756-1.177Zm6.07-2.648.029.651a1.888,1.888,0,0,1,1.552-.747q1.643,0,1.657,1.853V1.356h-.886V-2.073a1.193,1.193,0,0,0-.256-.829,1.027,1.027,0,0,0-.783-.268,1.279,1.279,0,0,0-.757.23,1.561,1.561,0,0,0-.508.6V1.356h-.886V-3.826ZM65.712-.018a.652.652,0,0,0-.271-.558A2.6,2.6,0,0,0,64.5-.919a4.461,4.461,0,0,1-1.068-.345,1.519,1.519,0,0,1-.584-.479,1.146,1.146,0,0,1-.189-.661A1.344,1.344,0,0,1,63.2-3.481a2.1,2.1,0,0,1,1.377-.441A2.165,2.165,0,0,1,66-3.466,1.445,1.445,0,0,1,66.55-2.3h-.891a.8.8,0,0,0-.309-.627,1.157,1.157,0,0,0-.778-.263,1.211,1.211,0,0,0-.757.211.663.663,0,0,0-.273.551.537.537,0,0,0,.254.484,3.123,3.123,0,0,0,.917.311,4.779,4.779,0,0,1,1.075.354,1.568,1.568,0,0,1,.611.5,1.219,1.219,0,0,1,.2.706,1.326,1.326,0,0,1-.556,1.114,2.33,2.33,0,0,1-1.442.419,2.609,2.609,0,0,1-1.1-.22,1.792,1.792,0,0,1-.75-.615,1.483,1.483,0,0,1-.271-.855h.886a.917.917,0,0,0,.357.706A1.384,1.384,0,0,0,64.6.729a1.429,1.429,0,0,0,.807-.2A.625.625,0,0,0,65.712-.018Zm5.534.862a1.882,1.882,0,0,1-1.518.608A1.611,1.611,0,0,1,68.465.971a2.083,2.083,0,0,1-.438-1.425V-3.826h.886V-.478Q68.913.7,69.871.7a1.326,1.326,0,0,0,1.351-.757V-3.826h.886V1.356h-.843Zm3.465.512h-.886V-6h.886ZM77.624-5.08v1.255h.967v.685h-.967V.077a.719.719,0,0,0,.129.468A.544.544,0,0,0,78.194.7a2.145,2.145,0,0,0,.421-.057v.714a2.584,2.584,0,0,1-.68.1,1.1,1.1,0,0,1-.9-.359,1.543,1.543,0,0,1-.3-1.02V-3.141h-.943v-.685h.943V-5.08Zm5.5,6.437A1.861,1.861,0,0,1,83,.81a1.977,1.977,0,0,1-1.475.642,1.829,1.829,0,0,1-1.257-.433,1.4,1.4,0,0,1-.491-1.1,1.465,1.465,0,0,1,.615-1.257,2.9,2.9,0,0,1,1.731-.448h.862v-.407a1,1,0,0,0-.278-.74,1.116,1.116,0,0,0-.819-.275,1.292,1.292,0,0,0-.8.239.706.706,0,0,0-.321.579h-.891a1.223,1.223,0,0,1,.275-.75,1.879,1.879,0,0,1,.747-.572,2.513,2.513,0,0,1,1.037-.211,2.049,2.049,0,0,1,1.4.448,1.615,1.615,0,0,1,.527,1.233V.145a2.916,2.916,0,0,0,.182,1.135v.077ZM81.649.681a1.557,1.557,0,0,0,.79-.216,1.3,1.3,0,0,0,.541-.56V-1.158h-.694q-1.628,0-1.628.953a.807.807,0,0,0,.278.651A1.068,1.068,0,0,0,81.649.681Zm4.739-4.507.029.651a1.888,1.888,0,0,1,1.552-.747q1.643,0,1.657,1.853V1.356h-.886V-2.073a1.193,1.193,0,0,0-.256-.829A1.027,1.027,0,0,0,87.7-3.17a1.279,1.279,0,0,0-.757.23,1.561,1.561,0,0,0-.508.6V1.356H85.55V-3.826Zm6.07-1.255v1.255h.967v.685h-.967V.077a.719.719,0,0,0,.129.468A.544.544,0,0,0,93.028.7a2.145,2.145,0,0,0,.421-.057v.714a2.584,2.584,0,0,1-.68.1,1.1,1.1,0,0,1-.9-.359,1.543,1.543,0,0,1-.3-1.02V-3.141h-.943v-.685h.943V-5.08Zm9.4,3.9a3.1,3.1,0,0,1-.541,1.906,1.735,1.735,0,0,1-1.466.723,1.9,1.9,0,0,1-1.485-.6v2.5h-.886V-3.826h.809l.043.575a1.825,1.825,0,0,1,1.5-.67,1.767,1.767,0,0,1,1.477.7,3.137,3.137,0,0,1,.544,1.959Zm-.886-.1a2.29,2.29,0,0,0-.374-1.384,1.2,1.2,0,0,0-1.025-.508,1.3,1.3,0,0,0-1.207.714V.02a1.3,1.3,0,0,0,1.216.709,1.2,1.2,0,0,0,1.013-.505A2.5,2.5,0,0,0,100.968-1.278Zm4.811-1.753a2.655,2.655,0,0,0-.436-.034,1.168,1.168,0,0,0-1.183.742V1.356h-.886V-3.826h.862l.014.6a1.38,1.38,0,0,1,1.236-.694.905.905,0,0,1,.393.067Zm.778,1.748a3.061,3.061,0,0,1,.3-1.37,2.233,2.233,0,0,1,.833-.939,2.268,2.268,0,0,1,1.219-.33,2.185,2.185,0,0,1,1.712.733,2.819,2.819,0,0,1,.654,1.949v.062a3.087,3.087,0,0,1-.29,1.358,2.2,2.2,0,0,1-.829.936,2.3,2.3,0,0,1-1.238.335A2.18,2.18,0,0,1,107.21.719a2.8,2.8,0,0,1-.654-1.94Zm.891.105a2.217,2.217,0,0,0,.4,1.384,1.28,1.28,0,0,0,1.07.522A1.272,1.272,0,0,0,109.99.2a2.424,2.424,0,0,0,.4-1.482,2.213,2.213,0,0,0-.4-1.382,1.286,1.286,0,0,0-1.075-.529,1.272,1.272,0,0,0-1.058.522A2.406,2.406,0,0,0,107.447-1.177Zm6.87,1.331,1.284-3.98h.905l-1.858,5.182h-.675l-1.877-5.182H113Zm4.3,1.2h-.886V-3.826h.886ZM117.657-5.2a.529.529,0,0,1,.132-.364.5.5,0,0,1,.39-.148.5.5,0,0,1,.393.148.523.523,0,0,1,.134.364.506.506,0,0,1-.134.359.511.511,0,0,1-.393.144.5.5,0,0,1-.39-.144A.511.511,0,0,1,117.657-5.2Zm2.454,3.922a3.036,3.036,0,0,1,.565-1.918,1.787,1.787,0,0,1,1.48-.726A1.8,1.8,0,0,1,123.6-3.3V-6h.886V1.356h-.814L123.627.8a1.8,1.8,0,0,1-1.48.651,1.77,1.77,0,0,1-1.468-.738,3.07,3.07,0,0,1-.568-1.925Zm.886.1A2.3,2.3,0,0,0,121.361.2a1.177,1.177,0,0,0,1.006.5A1.293,1.293,0,0,0,123.6-.057v-2.38a1.3,1.3,0,0,0-1.221-.733,1.182,1.182,0,0,0-1.015.5A2.531,2.531,0,0,0,121-1.177ZM128.3,1.452A2.264,2.264,0,0,1,126.589.76a2.569,2.569,0,0,1-.661-1.851v-.163a3.11,3.11,0,0,1,.295-1.377,2.3,2.3,0,0,1,.824-.948,2.071,2.071,0,0,1,1.147-.342,1.941,1.941,0,0,1,1.571.666,2.882,2.882,0,0,1,.56,1.906v.369h-3.511a1.842,1.842,0,0,0,.448,1.238,1.408,1.408,0,0,0,1.09.472,1.543,1.543,0,0,0,.8-.192,2,2,0,0,0,.57-.508l.541.421A2.176,2.176,0,0,1,128.3,1.452Zm-.11-4.646a1.182,1.182,0,0,0-.9.39,1.9,1.9,0,0,0-.45,1.094h2.6v-.067a1.688,1.688,0,0,0-.364-1.046A1.113,1.113,0,0,0,128.193-3.193Zm5.955.163a2.655,2.655,0,0,0-.436-.034,1.168,1.168,0,0,0-1.183.742V1.356h-.886V-3.826h.862l.014.6a1.38,1.38,0,0,1,1.236-.694.905.905,0,0,1,.393.067Z" transform="translate(-0.191 35.997)" fill="#6e6e6e"/>
  </g>
</svg>
