<svg xmlns="http://www.w3.org/2000/svg" width="54" height="54" viewBox="0 0 54 54">
  <g id="Group_6346" data-name="Group 6346" transform="translate(-0.325)">
    <rect id="Rectangle_954" data-name="Rectangle 954" width="54" height="54" rx="27" transform="translate(0.325)" fill="#03c302"/>
    <path id="Subtraction_10" data-name="Subtraction 10" d="M10.872,22a.385.385,0,0,1-.307-.129,1.1,1.1,0,0,1-.105-.845l.027-.181v0c.137-.919.227-1.527-.054-1.884a1.227,1.227,0,0,0-.912-.365A10.753,10.753,0,0,1,6.37,17.8a12.465,12.465,0,0,1-4.351-3.057A7.366,7.366,0,0,1,.426,12.087,7.89,7.89,0,0,1,.075,10.6,8.248,8.248,0,0,1,.01,9.078a8.437,8.437,0,0,1,.7-2.964A7.917,7.917,0,0,1,2.452,3.588,12.811,12.811,0,0,1,6.877.755,12,12,0,0,1,8.782.216a11.407,11.407,0,0,1,1.477-.19c.272-.017.563-.025.863-.025a16.334,16.334,0,0,1,2.408.179,14.134,14.134,0,0,1,3.052.8A10.94,10.94,0,0,1,19.67,2.79a10.071,10.071,0,0,1,2.515,3.22,7.385,7.385,0,0,1-.746,7.887,15.781,15.781,0,0,1-2.451,2.762c-.837.761-1.626,1.356-2.148,1.749l-.011.008-.1.074a56.135,56.135,0,0,1-5.278,3.316A1.315,1.315,0,0,1,10.872,22Zm.506-12.962h0l2.315,3.2a.6.6,0,0,0,.484.248.587.587,0,0,0,.209-.038.6.6,0,0,0,.425-.575V7.224a.6.6,0,1,0-1.194,0v2.871L11.326,6.922a.614.614,0,0,0-1.141.3v4.654a.6.6,0,1,0,1.194,0V9.038ZM16.3,6.623a.6.6,0,0,0-.6.6v4.654a.6.6,0,0,0,.6.6h2.238a.6.6,0,0,0,0-1.2H16.9V10.226h1.642a.6.6,0,0,0,0-1.2H16.9v-1.2h1.642a.6.6,0,0,0,0-1.2Zm-7.612,0a.6.6,0,0,0-.6.6v4.654a.6.6,0,1,0,1.194,0V7.224A.6.6,0,0,0,8.692,6.623Zm-4.03,0a.6.6,0,0,0-.6.6v4.654a.6.6,0,0,0,.6.6H6.9a.6.6,0,0,0,0-1.2H5.259V7.224A.6.6,0,0,0,4.662,6.623Z" transform="translate(15.325 17)" fill="#fff"/>
  </g>
</svg>
