<svg xmlns="http://www.w3.org/2000/svg" width="34.766" height="24.336" viewBox="0 0 34.766 24.336">
  <path id="Icon_awesome-money-check-alt" data-name="Icon awesome-money-check-alt" d="M33.028,2.25H1.738A1.739,1.739,0,0,0,0,3.988v20.86a1.739,1.739,0,0,0,1.738,1.738H33.028a1.739,1.739,0,0,0,1.738-1.738V3.988A1.739,1.739,0,0,0,33.028,2.25ZM9.561,18.323V19.2a.434.434,0,0,1-.435.435H8.257a.434.434,0,0,1-.435-.435v-.885a3.11,3.11,0,0,1-1.7-.617.435.435,0,0,1-.031-.659l.638-.609a.446.446,0,0,1,.55-.04,1.308,1.308,0,0,0,.7.2H9.5a.683.683,0,0,0,.641-.717.709.709,0,0,0-.476-.692L7.219,14.45A2.458,2.458,0,0,1,5.5,12.093,2.419,2.419,0,0,1,7.822,9.644V8.769a.434.434,0,0,1,.435-.435h.869a.434.434,0,0,1,.435.435v.885a3.106,3.106,0,0,1,1.7.617.435.435,0,0,1,.031.659l-.638.609a.446.446,0,0,1-.55.04,1.3,1.3,0,0,0-.7-.2H7.883a.683.683,0,0,0-.641.717.709.709,0,0,0,.476.692l2.444.733a2.458,2.458,0,0,1,1.715,2.357A2.419,2.419,0,0,1,9.561,18.323ZM22.6,17.46a.434.434,0,0,1-.435.435H16.079a.434.434,0,0,1-.435-.435v-.869a.434.434,0,0,1,.435-.435h6.084a.434.434,0,0,1,.435.435Zm8.692,0a.434.434,0,0,1-.435.435H26.509a.434.434,0,0,1-.435-.435v-.869a.434.434,0,0,1,.435-.435h4.346a.434.434,0,0,1,.435.435Zm0-5.215a.434.434,0,0,1-.435.435H16.079a.434.434,0,0,1-.435-.435v-.869a.434.434,0,0,1,.435-.435H30.855a.434.434,0,0,1,.435.435Z" transform="translate(0 -2.25)" fill="#fff"/>
</svg>
