<svg xmlns="http://www.w3.org/2000/svg" width="36.827" height="24.121" viewBox="0 0 36.827 24.121">
  <path id="Icon_payment-credit-card" data-name="Icon payment-credit-card" d="M40.518,16.35a2.615,2.615,0,0,1,2.53,2.53V37.941a2.615,2.615,0,0,1-2.53,2.53H8.751a2.3,2.3,0,0,1-1.765-.765,2.3,2.3,0,0,1-.765-1.765V18.88a2.3,2.3,0,0,1,.765-1.765,2.305,2.305,0,0,1,1.765-.765H40.518Zm-31.767,2q-.294,0-.353.177a.509.509,0,0,0-.177.353v3.53H41.047V18.88a.509.509,0,0,0-.177-.353q-.059-.177-.353-.177H8.751ZM40.518,38.471q.294,0,.353-.177a.508.508,0,0,0,.177-.353V28.41H8.221v9.531a.509.509,0,0,0,.177.353q.058.177.353.177H40.518Zm-30.3-2V34.411h4.06V36.47Zm6.06,0V34.411h6V36.47Z" transform="translate(-6.221 -16.35)" fill="#6e6e6e"/>
</svg>
