<svg xmlns="http://www.w3.org/2000/svg" width="43.563" height="48.814" viewBox="0 0 43.563 48.814">
  <g id="Group_7129" data-name="Group 7129" transform="translate(-1322 -596.996)">
    <path id="Path_2562" data-name="Path 2562" d="M6804.313,6246.894l3.957,3.291v-3.777h-3.957Z" transform="translate(-5481.71 -5631.817)" fill="#9e4141"/>
    <g id="Group_7124" data-name="Group 7124" transform="translate(1326.103 596.996)">
      <path id="Path_2560" data-name="Path 2560" d="M2.3,0,28.913.036,39.46,11.062l-.038,8.133-.061,25.226c0,2.426-1.03,4.393-2.3,4.393H2.3c-1.27,0-2.3-1.967-2.3-4.393V4.393C0,1.967,1.03,0,2.3,0Z" transform="translate(0 0)" fill="#f5f5f5"/>
      <path id="Path_2559" data-name="Path 2559" d="M10.48,28.554H3.414A3.452,3.452,0,0,1,.006,25.059V17.507Z" transform="translate(28.942 -17.507)" fill="#e0e0e0"/>
    </g>
    <g id="Group_7125" data-name="Group 7125" transform="translate(1322 603.369)">
      <rect id="Rectangle_1065" data-name="Rectangle 1065" width="27.324" height="12.322" rx="2" fill="#e15d5d"/>
      <path id="Path_2561" data-name="Path 2561" d="M1.512-8.889v-6.567H4.675a2.813,2.813,0,0,1,1.344.286,1.824,1.824,0,0,1,.782.78,2.436,2.436,0,0,1,.253,1.127,2.012,2.012,0,0,1-.656,1.57,2.542,2.542,0,0,1-1.769.591H2.713v2.213Zm1.2-3.09h1.7a1.51,1.51,0,0,0,1.08-.347,1.235,1.235,0,0,0,.364-.938,1.323,1.323,0,0,0-.347-.979,1.415,1.415,0,0,0-1.041-.347H2.713Zm5.3,3.09v-6.567H10.89a3.157,3.157,0,0,1,2.336.77,3.55,3.55,0,0,1,.76,2.555,3.455,3.455,0,0,1-.749,2.463,3.125,3.125,0,0,1-2.347.78Zm1.2-.857H10.7a3.082,3.082,0,0,0,1.157-.189,1.287,1.287,0,0,0,.694-.709,3.783,3.783,0,0,0,.231-1.489,4.232,4.232,0,0,0-.209-1.5,1.31,1.31,0,0,0-.667-.744,2.871,2.871,0,0,0-1.207-.214H9.215Zm5.951.857v-6.567h4.827v.867H16.367V-12.6h3.218v.857H16.367v2.855Z" transform="translate(3.913 18.333)" fill="#fff"/>
    </g>
    <g id="Group_7128" data-name="Group 7128" transform="translate(1331.037 622.379)">
      <rect id="Rectangle_1066" data-name="Rectangle 1066" width="29.592" height="2.755" rx="1" fill="#e0e0e0"/>
      <rect id="Rectangle_1067" data-name="Rectangle 1067" width="29.592" height="2.755" rx="1" transform="translate(0 5.51)" fill="#e0e0e0"/>
      <rect id="Rectangle_1068" data-name="Rectangle 1068" width="29.592" height="2.755" rx="1" transform="translate(0 11.02)" fill="#e0e0e0"/>
    </g>
  </g>
</svg>
