<svg xmlns="http://www.w3.org/2000/svg" xmlns:xlink="http://www.w3.org/1999/xlink" width="192.548" height="192.548" viewBox="0 0 192.548 192.548">
  <defs>
    <linearGradient id="linear-gradient" x1="-0.387" y1="0.169" x2="1.005" y2="0.755" gradientUnits="objectBoundingBox">
      <stop offset="0" stop-color="#fff"/>
      <stop offset="1" stop-color="#d9d9d9"/>
    </linearGradient>
    <linearGradient id="linear-gradient-2" x1="0.456" y1="0.255" x2="0.566" y2="0.692" gradientUnits="objectBoundingBox">
      <stop offset="0" stop-color="#fabc88"/>
      <stop offset="1" stop-color="#ffe3cb"/>
    </linearGradient>
    <filter id="Union_77" x="19.43" y="26.565" width="132.452" height="109.735" filterUnits="userSpaceOnUse">
      <feOffset dy="3" input="SourceAlpha"/>
      <feGaussianBlur stdDeviation="3" result="blur"/>
      <feFlood flood-opacity="0.161"/>
      <feComposite operator="in" in2="blur"/>
      <feComposite in="SourceGraphic"/>
    </filter>
    <linearGradient id="linear-gradient-3" x1="0.5" x2="0.5" y2="1" gradientUnits="objectBoundingBox">
      <stop offset="0" stop-color="#9d703a"/>
      <stop offset="1" stop-color="#d5a264"/>
    </linearGradient>
    <linearGradient id="linear-gradient-4" x1="0.5" x2="0.5" y2="1" gradientUnits="objectBoundingBox">
      <stop offset="0" stop-color="#daa86c"/>
      <stop offset="1" stop-color="#ac6f28"/>
    </linearGradient>
    <linearGradient id="linear-gradient-5" x1="0.498" y1="-1.014" x2="0.497" y2="0.989" gradientUnits="objectBoundingBox">
      <stop offset="0" stop-color="#885823"/>
      <stop offset="1" stop-color="#d38f44"/>
    </linearGradient>
    <filter id="Path_293" x="20.182" y="57.735" width="125.474" height="78.83" filterUnits="userSpaceOnUse">
      <feOffset dy="3" input="SourceAlpha"/>
      <feGaussianBlur stdDeviation="3" result="blur-2"/>
      <feFlood flood-opacity="0.161"/>
      <feComposite operator="in" in2="blur-2"/>
      <feComposite in="SourceGraphic"/>
    </filter>
    <linearGradient id="linear-gradient-6" x1="0.372" y1="0.265" x2="0.869" y2="1.349" gradientUnits="objectBoundingBox">
      <stop offset="0" stop-color="#d38f44"/>
      <stop offset="1" stop-color="#ffbb6f"/>
    </linearGradient>
    <filter id="Path_295" x="23.887" y="26.784" width="128.155" height="88.48" filterUnits="userSpaceOnUse">
      <feOffset dy="3" input="SourceAlpha"/>
      <feGaussianBlur stdDeviation="3" result="blur-3"/>
      <feFlood flood-opacity="0.161"/>
      <feComposite operator="in" in2="blur-3"/>
      <feComposite in="SourceGraphic"/>
    </filter>
  </defs>
  <g id="Group_6710" data-name="Group 6710" transform="translate(-4.679 -9.452)">
    <rect id="Rectangle_975" data-name="Rectangle 975" width="136.235" height="136.235" rx="32" transform="translate(97.591 9.452) rotate(43)" fill="url(#linear-gradient)"/>
    <g id="Group_6391" data-name="Group 6391" transform="translate(0 58.905) rotate(-25)">
      <path id="Path_280" data-name="Path 280" d="M49.412,12.818,46.751.387.042,0S-.592,27.92,3.055,35.051A24.612,24.612,0,0,0,13.593,45.322l.936,18.615,31.43-13.079Z" transform="translate(64.152 91.926)" fill="url(#linear-gradient-2)"/>
      <g id="Group_6390" data-name="Group 6390" transform="translate(15.727 0) rotate(8)">
        <g transform="matrix(0.96, 0.29, -0.29, 0.96, 3.36, -43.73)" filter="url(#Union_77)">
          <path id="Union_77-2" data-name="Union 77" d="M3.871-.114H98.1a4.029,4.029,0,0,1,4.032,4.032v65.5A4.029,4.029,0,0,1,98.1,73.453H3.871A4.029,4.029,0,0,1-.161,69.421V3.918A4.029,4.029,0,0,1,3.871-.114Z" transform="translate(42.6 32.71) rotate(11)" fill="#d38f44"/>
        </g>
        <g id="Group_6389" data-name="Group 6389" transform="translate(0.186 0.13)">
          <path id="Path_290" data-name="Path 290" d="M37.7,0,71.757,43.316a2.928,2.928,0,0,1-2.535,1.349c-1.8,0-66.782.011-67.857,0S0,44.333,0,44.333Z" transform="matrix(-0.469, 0.883, -0.883, -0.469, 73.129, 22.43)" fill="url(#linear-gradient-3)"/>
          <path id="Path_292" data-name="Path 292" d="M37.747,44.687,71.535,1.407A3.309,3.309,0,0,0,69.269.022C67.929-.018,2.657,0,1.412.025S0,.23,0,.23Z" transform="matrix(-0.469, 0.883, -0.883, -0.469, 123.917, 49.709)" fill="url(#linear-gradient-4)"/>
          <g transform="matrix(0.96, 0.29, -0.29, 0.96, 3.17, -43.87)" filter="url(#Path_293)">
            <path id="Path_293-2" data-name="Path 293" d="M50.628,0l50.638,41.05s-.611,1.21-1.616,1.221-96.291-.017-97.671.012A2.247,2.247,0,0,1,0,41.092Z" transform="translate(37.25 63.73) rotate(11)" fill="url(#linear-gradient-5)"/>
          </g>
          <g transform="matrix(0.96, 0.29, -0.29, 0.96, 3.17, -43.87)" filter="url(#Path_295)">
            <path id="Path_295-2" data-name="Path 295" d="M51.314,0l50.8,49.533s.244,2.249-1.773,2.343-95.659.1-97.672.015A3.051,3.051,0,0,1,0,49.93Z" transform="translate(133.13 103.26) rotate(-169)" fill="url(#linear-gradient-6)"/>
          </g>
        </g>
      </g>
      <path id="Path_296" data-name="Path 296" d="M3.254,56.2s-5.559-9.249.932-17.27,10.769-7.29,10.769-7.29A44.813,44.813,0,0,0,7.832,18.094C2.51,11.064-4.064,6.118,3.254,1.026s18.5,10.068,23.411,17.069,8.01,11.99,8.049,17.788c.019,2.887-3.336,10.285-3.8,16.386-.437,5.72,2.1,10.383,1.643,12.547L3.27,76.645Z" transform="translate(80.846 76.916)" fill="#ffe3cb"/>
    </g>
  </g>
</svg>
