<svg xmlns="http://www.w3.org/2000/svg" width="20" height="19.46" viewBox="0 0 20 19.46">
  <g id="Group_7380" data-name="Group 7380" transform="translate(-11373.381 -6549.939)">
    <g id="Group_7380-2" data-name="Group 7380" transform="translate(11383.337 6549.939)">
      <path id="Subtraction_18" data-name="Subtraction 18" d="M9.164,19.46a.905.905,0,0,1-.282-.046L0,16.51V.012A.917.917,0,0,1,.146,0,.885.885,0,0,1,.592.119.881.881,0,0,1,.931.483L7.162,12.711l2.783,5.462a.867.867,0,0,1-.031.86.91.91,0,0,1-.314.309A.862.862,0,0,1,9.164,19.46Z" transform="translate(0 0)" fill="#e0e0e0"/>
    </g>
    <g id="Group_7381" data-name="Group 7381" transform="translate(11373.381 6549.939)">
      <path id="Subtraction_18-2" data-name="Subtraction 18" d="M.146,19.46A.917.917,0,0,1,0,19.448V2.95L8.882.046A.905.905,0,0,1,9.164,0,.862.862,0,0,1,9.6.119a.91.91,0,0,1,.314.309.867.867,0,0,1,.031.86L3.193,14.538.931,18.977a.881.881,0,0,1-.339.363A.885.885,0,0,1,.146,19.46Z" transform="translate(10.044 19.46) rotate(180)" fill="#f5f5f5"/>
    </g>
  </g>
</svg>
