<svg xmlns="http://www.w3.org/2000/svg" width="28.202" height="28.948" viewBox="0 0 28.202 28.948">
  <path id="Subtraction_20" data-name="Subtraction 20" d="M-3402.162-9937.052a2.4,2.4,0,0,1-1.17-.38,19.244,19.244,0,0,1-3.046-2.266,9.2,9.2,0,0,1-1.808-2.121,9.585,9.585,0,0,1-.952-2.05,8.44,8.44,0,0,1-.433-2.159c0-.044,0-4.691,0-5.313a1.077,1.077,0,0,1,.414-.893h0a.535.535,0,0,1,.147-.075l6.755-2.2a.459.459,0,0,1,.146-.023.463.463,0,0,1,.146.023l2.234.729,4.521,1.474a.469.469,0,0,1,.319.337,1.684,1.684,0,0,1,.087.631c0,.619,0,2.428,0,3.882v.186c0,.565,0,1.053,0,1.354a6.533,6.533,0,0,1-.487,2.282,11.757,11.757,0,0,1-1.924,3.228,11.393,11.393,0,0,1-3.016,2.551,6.089,6.089,0,0,1-1.858.807h-.076Zm-2.764-10.488a1.181,1.181,0,0,0-.8.317,1.246,1.246,0,0,0-.4.855,1.249,1.249,0,0,0,.308.893l1.921,2.2.008.01.005.009a1.228,1.228,0,0,0,.271.319,1.168,1.168,0,0,0,.756.276,1.2,1.2,0,0,0,.389-.065v0a1.187,1.187,0,0,0,.439-.258,1.264,1.264,0,0,0,.23-.289l0-.008.005-.006,3.653-4.641a1.263,1.263,0,0,0-.179-1.74,1.162,1.162,0,0,0-.755-.275,1.188,1.188,0,0,0-.937.458l-1.494,1.9-1.3,1.654-.089.113-.094-.108-.3-.348-.743-.849A1.2,1.2,0,0,0-3404.926-9947.54Zm-5.247,6.862h-9.645a4.109,4.109,0,0,1-1.581-.432,2.881,2.881,0,0,1-1.09-.947,3.187,3.187,0,0,1-.5-1.8c-.015-2.555,0-6.381,0-7.908v-11.317a3.649,3.649,0,0,1,.344-1.442,2.51,2.51,0,0,1,.843-1,2.929,2.929,0,0,1,1.654-.468c.85-.009,2.1-.013,3.7-.013,2.271,0,4.682.009,5.613.013h3.782c.036,0,.144-.011.306-.011a4.7,4.7,0,0,1,2.2.514,2.969,2.969,0,0,1,1.5,2.816v5.867l-3.657,1.193a1.08,1.08,0,0,0-.937-.561h-10.588a1.1,1.1,0,0,0-1.083,1.115,1.1,1.1,0,0,0,1.083,1.113h7.769a2.376,2.376,0,0,0-1.144,1.023,4.126,4.126,0,0,0-.235,1.452h-6.39a1.1,1.1,0,0,0-1.083,1.114,1.1,1.1,0,0,0,1.083,1.113h6.395v.349h0a31.4,31.4,0,0,0,0,3.465,9.948,9.948,0,0,0,.805,3.247,9.547,9.547,0,0,0,.857,1.5Zm-8.057-20.44a1.1,1.1,0,0,0-1.083,1.114,1.1,1.1,0,0,0,1.083,1.113h4.813a1.1,1.1,0,0,0,1.083-1.113,1.1,1.1,0,0,0-1.083-1.114Z" transform="translate(3423 9966)" fill="#15355F"/>
</svg>
