<svg xmlns="http://www.w3.org/2000/svg" width="36" height="24.001" viewBox="0 0 36 24.001">
  <path id="Subtraction_15" data-name="Subtraction 15" d="M-5452.5-5584H-5472a9.011,9.011,0,0,1-9-9,8.976,8.976,0,0,1,2.319-6.028,8.961,8.961,0,0,1,5.706-2.912A11.215,11.215,0,0,1-5463-5608a11.245,11.245,0,0,1,7.178,2.589,11.28,11.28,0,0,1,3.848,6.472,7.5,7.5,0,0,1,4.95,2.336,7.405,7.405,0,0,1,2.025,5.1A7.509,7.509,0,0,1-5452.5-5584Zm-10.5-18.439a1,1,0,0,0-.769.361l-5.364,6.438a.991.991,0,0,0-.138,1.065.992.992,0,0,0,.906.576h2.865v5a1,1,0,0,0,1,1h3a1,1,0,0,0,1-1v-5h2.865a.992.992,0,0,0,.906-.576.991.991,0,0,0-.138-1.065l-5.364-6.437A1,1,0,0,0-5463-5602.439Z" transform="translate(5481 5608)" fill="#6e6e6e"/>
</svg>
