<svg xmlns="http://www.w3.org/2000/svg" width="33.036" height="26.429" viewBox="0 0 33.036 26.429">
  <path id="Icon_awesome-user-shield" data-name="Icon awesome-user-shield" d="M32.122,13.994l-5.946-2.323a1.6,1.6,0,0,0-1.146,0l-5.946,2.323a1.4,1.4,0,0,0-.914,1.285A11.735,11.735,0,0,0,25.03,26.32a1.6,1.6,0,0,0,1.146,0,11.7,11.7,0,0,0,6.86-11.041A1.4,1.4,0,0,0,32.122,13.994ZM25.6,23.868V14.107l4.93,1.925a9.233,9.233,0,0,1-4.93,7.836ZM11.563,13.214A6.607,6.607,0,1,0,4.955,6.607,6.607,6.607,0,0,0,11.563,13.214Zm4.955,2.065a2.932,2.932,0,0,1,.057-.372c-.129-.005-.253-.041-.387-.041h-.862a8.986,8.986,0,0,1-7.526,0H6.938A6.939,6.939,0,0,0,0,21.8v2.147a2.478,2.478,0,0,0,2.478,2.478h18.17a2.54,2.54,0,0,0,.991-.206A13.869,13.869,0,0,1,16.518,15.279Z" fill="#9b9b9b"/>
</svg>
